<svg width="23" height="22" viewBox="0 0 23 22" fill="none" xmlns="http://www.w3.org/2000/svg">
<path fill-rule="evenodd" clip-rule="evenodd" d="M11.6215 21.2416C11.6215 21.457 11.6754 21.6185 11.8505 21.7396C13.6154 21.7396 15.3804 21.7396 17.1453 21.7351C17.2576 21.6319 17.3699 21.5288 17.3699 21.3493C17.3669 20.7213 17.3679 20.0932 17.3689 19.4652C17.3694 19.1511 17.3699 18.8371 17.3699 18.5231C17.3699 18.3975 17.3339 18.2584 17.2172 18.2225C16.9971 18.1507 16.9971 18.0027 17.0106 17.8277C17.0195 17.7081 17.0152 17.5928 17.0107 17.4732L17.0106 17.4688C16.9926 17.0651 17.1453 16.7466 17.4462 16.4819C17.7506 16.2152 18.0526 15.9469 18.3545 15.6787L18.3547 15.6786C18.7789 15.3017 19.203 14.925 19.6333 14.5529C20.0195 14.2209 20.2935 13.8306 20.3967 13.3237C20.4283 13.169 20.4727 13.018 20.517 12.8671L20.517 12.8671C20.5421 12.7817 20.5671 12.6963 20.5899 12.6104C20.7475 12.0158 20.9058 11.4218 21.0639 10.8279L21.0641 10.8275L21.0643 10.8267L21.0643 10.8267L21.0643 10.8266C21.3476 9.76309 21.6307 8.70014 21.9102 7.63533C22.0314 7.17775 21.9012 6.76503 21.6093 6.40166C21.497 6.26259 21.241 5.7736 21.2051 5.60762C21.0614 4.97508 20.5405 4.50404 19.9521 4.46815C19.2246 4.42778 18.6588 4.80461 18.4207 5.49547L18.4205 5.49613L18.4204 5.49629L18.4204 5.4964C17.913 6.95406 17.4057 8.41174 16.9028 9.87389C16.8534 10.0219 16.7726 10.1251 16.6333 10.2059C15.6364 10.7801 14.6394 11.3588 13.6514 11.9465C12.5421 12.6059 11.9897 13.5839 11.9852 14.8714C11.983 15.3851 11.983 15.8976 11.983 16.4096C11.983 16.9215 11.983 17.433 11.9807 17.9444C11.9807 17.9607 11.9832 17.9782 11.9857 17.9961C11.995 18.0619 12.0049 18.1324 11.8954 18.1642C11.6709 18.227 11.6215 18.4019 11.6215 18.6173C11.6304 19.4921 11.6304 20.3669 11.6215 21.2416ZM12.7044 16.682C12.7041 16.5219 12.7038 16.3557 12.7038 16.1813C12.714 15.9863 12.7081 15.774 12.702 15.5517C12.6919 15.1858 12.681 14.7927 12.7397 14.4048C12.8565 13.6198 13.2696 13.0142 13.9523 12.6104C14.7851 12.1149 15.6237 11.6281 16.4635 11.1407L16.4635 11.1407L16.4635 11.1407L17.069 10.7891C17.4597 10.5603 17.8773 10.65 18.0884 10.9999C18.3085 11.3588 18.1962 11.7805 17.7965 12.0138C17.3877 12.2553 16.977 12.4914 16.5656 12.7278L16.5654 12.728L16.5653 12.728L16.5653 12.728L16.5653 12.728C16.3351 12.8603 16.1047 12.9927 15.8744 13.1263C15.6453 13.2609 15.5735 13.4044 15.6319 13.5973C15.6992 13.8217 15.9462 13.9114 16.1798 13.7768C16.7276 13.4673 17.2709 13.1533 17.8142 12.8394L17.8145 12.8392C17.8751 12.8033 17.9368 12.7674 17.9986 12.7315C18.0603 12.6956 18.1221 12.6598 18.1827 12.6239C18.8653 12.2111 19.0989 11.4665 18.7665 10.7442C18.7216 10.6455 18.7216 10.5647 18.7531 10.4661C18.9693 9.80732 19.1822 9.14859 19.3949 8.49084L19.395 8.49053L19.3952 8.48997L19.3953 8.48953C19.5359 8.05474 19.6763 7.62038 19.8174 7.18672C19.9477 6.774 20.3518 6.53624 20.7201 6.64391C21.1153 6.76054 21.3084 7.14635 21.1872 7.59496C21.0211 8.21676 20.8545 8.83856 20.6879 9.46036L20.6877 9.46084L20.6876 9.46132C20.3543 10.7054 20.021 11.9495 19.6917 13.1936C19.6108 13.4987 19.4626 13.7499 19.2201 13.9607C18.7828 14.3433 18.3485 14.7288 17.9137 15.1148L17.9136 15.1149L17.9135 15.1149C17.5938 15.3988 17.2738 15.6828 16.9522 15.966C16.5211 16.3518 16.301 16.8273 16.292 17.406C16.2907 17.4792 16.3 17.5598 16.3093 17.6404C16.3308 17.8266 16.3523 18.0133 16.2426 18.1104C16.1462 18.1971 15.9553 18.1803 15.7673 18.1638C15.6927 18.1572 15.6186 18.1507 15.551 18.1507C15.3297 18.1507 15.1087 18.1504 14.8878 18.1502C14.2256 18.1493 13.5648 18.1485 12.9014 18.1552C12.7487 18.1552 12.6948 18.1193 12.6993 17.9578C12.7059 17.549 12.7052 17.1401 12.7044 16.682ZM14.0178 18.8691L14.0165 18.8691C13.5295 18.8699 13.0438 18.8707 12.5556 18.864C12.3939 18.864 12.3355 18.8999 12.34 19.0749C12.349 19.6581 12.349 20.2368 12.34 20.82C12.34 20.977 12.3804 21.0218 12.5421 21.0218C13.84 21.0173 15.1424 21.0173 16.4402 21.0218C16.6019 21.0218 16.6603 20.9859 16.6558 20.811C16.6468 20.2278 16.6468 19.6491 16.6558 19.0659C16.6558 18.9089 16.6154 18.8595 16.4537 18.864C15.9688 18.8707 15.4813 18.8699 14.9932 18.8691C14.8304 18.8688 14.6675 18.8685 14.5046 18.8685C14.3421 18.8685 14.1799 18.8688 14.0178 18.8691ZM19.1213 5.6794C19.2291 5.37434 19.512 5.18593 19.8309 5.19041C20.1453 5.1949 20.4417 5.44612 20.509 5.75117C20.536 5.86781 20.4955 5.89921 20.3788 5.91716C19.7456 6.00688 19.3324 6.36577 19.1348 6.9669C18.8159 7.9359 18.5016 8.90938 18.1872 9.88286C18.1816 9.89968 18.1777 9.91958 18.1737 9.93982C18.1617 10.0006 18.149 10.0646 18.0884 10.0578C17.9679 10.0428 17.8505 9.99617 17.7337 9.94977C17.7112 9.94084 17.6887 9.93192 17.6663 9.92324C17.6573 9.92324 17.6752 9.84249 17.6887 9.80211C18.1648 8.42488 18.6408 7.05214 19.1213 5.6794Z" fill="#4BBD60"/>
<path d="M11.8505 21.7396L11.7652 21.863L11.8037 21.8896H11.8505V21.7396ZM11.6215 21.2416L11.4715 21.2401V21.2416H11.6215ZM17.1453 21.7351L17.1457 21.8851L17.2039 21.885L17.2468 21.8456L17.1453 21.7351ZM17.3699 21.3493H17.5199L17.5199 21.3486L17.3699 21.3493ZM17.3689 19.4652L17.2189 19.4649L17.3689 19.4652ZM17.2172 18.2225L17.1706 18.3651L17.1731 18.3659L17.2172 18.2225ZM17.0106 17.8277L17.1601 17.8392L17.1602 17.8388L17.0106 17.8277ZM17.0107 17.4732L16.8608 17.4788L16.8608 17.4788L17.0107 17.4732ZM17.0106 17.4688L17.1605 17.4633L17.1604 17.4622L17.0106 17.4688ZM17.4462 16.4819L17.3473 16.3691L17.3471 16.3693L17.4462 16.4819ZM18.3545 15.6787L18.4542 15.7908L18.4549 15.7902L18.3545 15.6787ZM18.3547 15.6786L18.2551 15.5664L18.2543 15.5671L18.3547 15.6786ZM19.6333 14.5529L19.5355 14.4391L19.5352 14.4394L19.6333 14.5529ZM20.3967 13.3237L20.2498 13.2937L20.2498 13.2937L20.3967 13.3237ZM20.517 12.8671L20.661 12.9094L20.6625 12.9035L20.517 12.8671ZM20.517 12.8671L20.3729 12.8248L20.3715 12.8307L20.517 12.8671ZM20.5899 12.6104L20.4449 12.572L20.4448 12.5721L20.5899 12.6104ZM21.0639 10.8279L20.9191 10.7889L20.919 10.7893L21.0639 10.8279ZM21.0641 10.8275L21.2089 10.8665L21.2091 10.8659L21.0641 10.8275ZM21.0643 10.8267L21.2093 10.8652L21.2096 10.8637L21.0643 10.8267ZM21.0643 10.8266L20.9193 10.788L20.9189 10.7896L21.0643 10.8266ZM21.9102 7.63533L21.7652 7.59691L21.7651 7.59725L21.9102 7.63533ZM21.6093 6.40166L21.7262 6.30771L21.726 6.30743L21.6093 6.40166ZM21.2051 5.60762L21.3517 5.57588L21.3514 5.57439L21.2051 5.60762ZM19.9521 4.46815L19.9613 4.31843L19.9605 4.31838L19.9521 4.46815ZM18.4207 5.49547L18.5624 5.54467L18.5626 5.54433L18.4207 5.49547ZM18.4205 5.49613L18.5622 5.5454L18.5622 5.54533L18.4205 5.49613ZM18.4204 5.49629L18.562 5.54589L18.5621 5.54557L18.4204 5.49629ZM18.4204 5.4964L18.2789 5.44679L18.2787 5.44709L18.4204 5.4964ZM16.9028 9.87389L16.7609 9.8251L16.7605 9.82641L16.9028 9.87389ZM16.6333 10.2059L16.7082 10.3358L16.7086 10.3356L16.6333 10.2059ZM13.6514 11.9465L13.728 12.0754L13.728 12.0754L13.6514 11.9465ZM11.9852 14.8714L12.1352 14.8721L12.1352 14.8719L11.9852 14.8714ZM11.9807 17.9444L11.8307 17.9437V17.9444H11.9807ZM11.9857 17.9961L12.1343 17.9752L12.1343 17.9752L11.9857 17.9961ZM11.8954 18.1642L11.9358 18.3086L11.9372 18.3082L11.8954 18.1642ZM11.6215 18.6173H11.4715L11.4715 18.6188L11.6215 18.6173ZM12.7038 16.1813L12.5538 16.1735V16.1813H12.7038ZM12.7044 16.682L12.8544 16.6818L12.7044 16.682ZM12.702 15.5517L12.8519 15.5476L12.702 15.5517ZM12.7397 14.4048L12.888 14.4273L12.8881 14.4269L12.7397 14.4048ZM13.9523 12.6104L14.0286 12.7395L14.029 12.7393L13.9523 12.6104ZM16.4635 11.1407L16.5388 11.2704L16.5406 11.2693L16.4635 11.1407ZM16.4635 11.1407L16.3903 11.0096L16.3863 11.012L16.4635 11.1407ZM16.4635 11.1407L16.5366 11.2717L16.5388 11.2704L16.4635 11.1407ZM17.069 10.7891L17.1443 10.9188L17.1448 10.9185L17.069 10.7891ZM18.0884 10.9999L17.96 11.0774L17.9605 11.0783L18.0884 10.9999ZM17.7965 12.0138L17.7209 11.8842L17.7202 11.8846L17.7965 12.0138ZM16.5656 12.7278L16.4909 12.5978L16.4906 12.598L16.5656 12.7278ZM16.5654 12.728L16.6402 12.858L16.6405 12.8578L16.5654 12.728ZM16.5653 12.728L16.4903 12.5977L16.4821 12.6032L16.5653 12.728ZM16.5653 12.728L16.6402 12.8584L16.6485 12.8528L16.5653 12.728ZM15.8744 13.1263L15.7991 12.9965L15.7984 12.997L15.8744 13.1263ZM15.6319 13.5973L15.7755 13.5542L15.7754 13.5539L15.6319 13.5973ZM16.1798 13.7768L16.106 13.6462L16.1049 13.6468L16.1798 13.7768ZM17.8142 12.8394L17.7393 12.7094L17.7391 12.7095L17.8142 12.8394ZM17.8145 12.8392L17.8893 12.9692L17.8909 12.9683L17.8145 12.8392ZM17.9986 12.7315L17.9232 12.6018L17.9986 12.7315ZM18.1827 12.6239L18.2591 12.7529L18.2603 12.7522L18.1827 12.6239ZM18.7665 10.7442L18.63 10.8063L18.6303 10.8069L18.7665 10.7442ZM18.7531 10.4661L18.6105 10.4193L18.6101 10.4205L18.7531 10.4661ZM19.3949 8.49084L19.5376 8.53698L19.5376 8.53693L19.3949 8.49084ZM19.395 8.49053L19.5377 8.53663L19.5377 8.53655L19.395 8.49053ZM19.3952 8.48997L19.5379 8.53599L19.538 8.53585L19.3952 8.48997ZM19.3953 8.48953L19.2526 8.44339L19.2525 8.44364L19.3953 8.48953ZM19.8174 7.18672L19.9601 7.23315L19.9605 7.23186L19.8174 7.18672ZM20.7201 6.64391L20.7626 6.50004L20.7622 6.49993L20.7201 6.64391ZM21.1872 7.59496L21.0423 7.55582L21.0422 7.55625L21.1872 7.59496ZM20.6879 9.46036L20.8327 9.49939L20.8328 9.49918L20.6879 9.46036ZM20.6876 9.46132L20.5428 9.42229L20.5427 9.4225L20.6876 9.46132ZM19.6917 13.1936L19.8367 13.232L19.8367 13.232L19.6917 13.1936ZM19.2201 13.9607L19.1217 13.8475L19.1214 13.8478L19.2201 13.9607ZM17.9137 15.1148L18.0124 15.2277L18.0132 15.227L17.9137 15.1148ZM17.9135 15.1149L17.8147 15.0021L17.8139 15.0028L17.9135 15.1149ZM16.9522 15.966L16.8531 15.8534L16.8522 15.8542L16.9522 15.966ZM16.292 17.406L16.442 17.4088L16.442 17.4084L16.292 17.406ZM16.3093 17.6404L16.4583 17.6232L16.3093 17.6404ZM16.2426 18.1104L16.1432 17.998L16.1423 17.9988L16.2426 18.1104ZM15.7673 18.1638L15.7542 18.3132H15.7542L15.7673 18.1638ZM14.8878 18.1502L14.8876 18.3002H14.8876L14.8878 18.1502ZM12.9014 18.1552V18.3052L12.9029 18.3052L12.9014 18.1552ZM12.6993 17.9578L12.8492 17.962L12.8493 17.9603L12.6993 17.9578ZM14.0165 18.8691L14.0168 19.0191H14.0169L14.0165 18.8691ZM14.0178 18.8691L14.0175 18.7191H14.0174L14.0178 18.8691ZM12.5556 18.864L12.5576 18.714H12.5556V18.864ZM12.34 19.0749L12.49 19.0726L12.49 19.071L12.34 19.0749ZM12.34 20.82L12.19 20.8176V20.82H12.34ZM12.5421 21.0218V21.1718L12.5426 21.1718L12.5421 21.0218ZM16.4402 21.0218L16.4397 21.1718H16.4402V21.0218ZM16.6558 20.811L16.5058 20.8133L16.5058 20.8148L16.6558 20.811ZM16.6558 19.0659L16.8058 19.0682V19.0659H16.6558ZM16.4537 18.864L16.4558 19.014L16.4579 19.014L16.4537 18.864ZM14.9932 18.8691L14.9934 18.7191H14.9934L14.9932 18.8691ZM19.8309 5.19041L19.833 5.04043L19.833 5.04043L19.8309 5.19041ZM19.1213 5.6794L18.9799 5.62943L18.9797 5.62984L19.1213 5.6794ZM20.509 5.75117L20.3625 5.78352L20.3629 5.78494L20.509 5.75117ZM20.3788 5.91716L20.3998 6.06569L20.4016 6.06542L20.3788 5.91716ZM19.1348 6.9669L19.2773 7.01379L19.2773 7.01375L19.1348 6.9669ZM18.1872 9.88286L18.3295 9.93035L18.3299 9.92896L18.1872 9.88286ZM18.1737 9.93982L18.3208 9.96888V9.96888L18.1737 9.93982ZM18.0884 10.0578L18.0698 10.2067L18.0719 10.2069L18.0884 10.0578ZM17.7337 9.94977L17.6783 10.0892L17.6783 10.0892L17.7337 9.94977ZM17.6663 9.92324L17.7204 9.78333L17.6942 9.77324H17.6663V9.92324ZM17.6887 9.80211L17.5469 9.75311L17.5464 9.75463L17.6887 9.80211ZM11.9358 21.6162C11.8696 21.5705 11.8316 21.5214 11.8081 21.4668C11.7837 21.4098 11.7715 21.3378 11.7715 21.2416H11.4715C11.4715 21.3608 11.4862 21.4773 11.5325 21.5851C11.5798 21.6954 11.6562 21.7876 11.7652 21.863L11.9358 21.6162ZM17.1449 21.5851C15.3802 21.5896 13.6155 21.5896 11.8505 21.5896V21.8896C13.6154 21.8896 15.3805 21.8896 17.1457 21.8851L17.1449 21.5851ZM17.2199 21.3493C17.2199 21.4545 17.162 21.5161 17.0438 21.6247L17.2468 21.8456C17.3532 21.7478 17.5199 21.603 17.5199 21.3493H17.2199ZM17.2189 19.4649C17.2179 20.0929 17.2169 20.7214 17.2199 21.35L17.5199 21.3486C17.5169 20.7211 17.5179 20.0935 17.5189 19.4654L17.2189 19.4649ZM17.2199 18.5231C17.2199 18.837 17.2194 19.1509 17.2189 19.4649L17.5189 19.4654C17.5194 19.1514 17.5199 18.8372 17.5199 18.5231H17.2199ZM17.1731 18.3659C17.1775 18.3673 17.1877 18.3709 17.1994 18.3983C17.2122 18.4281 17.2199 18.4721 17.2199 18.5231H17.5199C17.5199 18.4484 17.5095 18.3601 17.4751 18.28C17.4398 18.1975 17.3736 18.1136 17.2612 18.0791L17.1731 18.3659ZM16.861 17.8162C16.8546 17.8995 16.8466 18.0133 16.8861 18.1172C16.9315 18.2364 17.0276 18.3185 17.1706 18.3651L17.2637 18.0799C17.1866 18.0548 17.1727 18.0269 17.1665 18.0105C17.1544 17.9786 17.1531 17.931 17.1601 17.8392L16.861 17.8162ZM16.8608 17.4788C16.8653 17.5996 16.8692 17.7066 16.861 17.8166L17.1602 17.8388C17.1698 17.7095 17.165 17.586 17.1606 17.4677L16.8608 17.4788ZM16.8607 17.4744L16.8608 17.4788L17.1606 17.4677L17.1605 17.4633L16.8607 17.4744ZM17.3471 16.3693C17.0157 16.6608 16.8405 17.0218 16.8607 17.4755L17.1604 17.4622C17.1447 17.1084 17.2749 16.8323 17.5453 16.5945L17.3471 16.3693ZM18.2549 15.5665C17.9529 15.8348 17.6513 16.1028 17.3473 16.3691L17.5451 16.5947C17.8499 16.3276 18.1523 16.059 18.4542 15.7908L18.2549 15.5665ZM18.2543 15.5671L18.2542 15.5672L18.4549 15.7902L18.455 15.7901L18.2543 15.5671ZM19.5352 14.4394C19.104 14.8123 18.6792 15.1897 18.2551 15.5664L18.4543 15.7907C18.8787 15.4138 19.302 15.0377 19.7314 14.6663L19.5352 14.4394ZM20.2498 13.2937C20.1547 13.7605 19.9031 14.1232 19.5355 14.4391L19.7311 14.6666C20.136 14.3186 20.4322 13.9008 20.5437 13.3536L20.2498 13.2937ZM20.3731 12.8248C20.329 12.9747 20.2828 13.1318 20.2498 13.2937L20.5437 13.3537C20.5738 13.2062 20.6163 13.0612 20.6609 12.9093L20.3731 12.8248ZM20.3715 12.8307L20.3715 12.8307L20.6625 12.9035L20.6625 12.9034L20.3715 12.8307ZM20.4448 12.5721C20.4227 12.6557 20.3982 12.7391 20.3731 12.8248L20.6609 12.9093C20.6859 12.8243 20.7115 12.737 20.7349 12.6488L20.4448 12.5721ZM20.919 10.7893C20.7608 11.3831 20.6026 11.9773 20.4449 12.572L20.7348 12.6489C20.8925 12.0543 21.0507 11.4604 21.2089 10.8665L20.919 10.7893ZM20.9192 10.7885L20.9191 10.7889L21.2088 10.8669L21.2089 10.8665L20.9192 10.7885ZM20.9193 10.7883L20.9191 10.789L21.2091 10.8659L21.2092 10.8652L20.9193 10.7883ZM20.9189 10.7897L20.9189 10.7897L21.2096 10.8637L21.2096 10.8637L20.9189 10.7897ZM20.9189 10.7896L20.9189 10.7897L21.2096 10.8637L21.2097 10.8636L20.9189 10.7896ZM21.7651 7.59725C21.4857 8.66175 21.2027 9.72444 20.9194 10.788L21.2092 10.8652C21.4925 9.80175 21.7757 8.73852 22.0553 7.67341L21.7651 7.59725ZM21.4924 6.4956C21.7614 6.83045 21.8717 7.19515 21.7652 7.59691L22.0552 7.67375C22.1912 7.16035 22.0411 6.69961 21.7262 6.30772L21.4924 6.4956ZM21.0585 5.63935C21.0813 5.74465 21.1639 5.9254 21.2452 6.08336C21.3278 6.24386 21.4258 6.41322 21.4926 6.49588L21.726 6.30743C21.6805 6.25103 21.5944 6.10636 21.512 5.9461C21.4282 5.78331 21.3649 5.63657 21.3517 5.57589L21.0585 5.63935ZM19.943 4.61787C20.4568 4.64921 20.928 5.06508 21.0588 5.64085L21.3514 5.57439C21.1948 4.88508 20.6242 4.35887 19.9613 4.31843L19.943 4.61787ZM18.5626 5.54433C18.7786 4.91732 19.2828 4.58124 19.9438 4.61792L19.9605 4.31838C19.1664 4.27432 18.5389 4.6919 18.2789 5.44661L18.5626 5.54433ZM18.5622 5.54533L18.5624 5.54467L18.279 5.44626L18.2788 5.44692L18.5622 5.54533ZM18.5621 5.54557L18.5622 5.5454L18.2788 5.44685L18.2788 5.44701L18.5621 5.54557ZM18.562 5.546L18.562 5.54589L18.2789 5.44669L18.2789 5.44679L18.562 5.546ZM17.0446 9.92268C17.5474 8.46083 18.0547 7.00342 18.5621 5.5457L18.2787 5.44709C17.7714 6.90471 17.2639 8.36265 16.761 9.82511L17.0446 9.92268ZM16.7086 10.3356C16.8805 10.2359 16.9845 10.1029 17.0451 9.92137L16.7605 9.82641C16.7223 9.94097 16.6646 10.0143 16.5581 10.0761L16.7086 10.3356ZM13.728 12.0754C14.7152 11.4882 15.7115 10.9099 16.7082 10.3358L16.5585 10.0759C15.5612 10.6502 14.5636 11.2293 13.5747 11.8175L13.728 12.0754ZM12.1352 14.8719C12.1395 13.6367 12.6645 12.7077 13.728 12.0754L13.5747 11.8175C12.4197 12.5042 11.8399 13.5311 11.8352 14.8709L12.1352 14.8719ZM12.133 16.4096C12.133 15.8975 12.133 15.3853 12.1352 14.8721L11.8352 14.8707C11.833 15.3848 11.833 15.8976 11.833 16.4096H12.133ZM12.1307 17.945C12.133 17.4332 12.133 16.9215 12.133 16.4096H11.833C11.833 16.9216 11.833 17.4327 11.8307 17.9437L12.1307 17.945ZM12.1343 17.9752C12.1314 17.9549 12.1307 17.9482 12.1307 17.9444H11.8307C11.8307 17.9731 11.835 18.0015 11.8372 18.017L12.1343 17.9752ZM11.9372 18.3082C12.0248 18.2828 12.0973 18.2297 12.1272 18.1408C12.1507 18.071 12.1376 17.9993 12.1343 17.9752L11.8372 18.017C11.8384 18.0255 11.8393 18.0318 11.8399 18.0378C11.8406 18.0436 11.8409 18.0476 11.841 18.0504C11.8412 18.0565 11.8402 18.053 11.8429 18.045C11.8444 18.0407 11.8467 18.0357 11.8501 18.0307C11.8534 18.0256 11.8571 18.0218 11.8601 18.0192C11.866 18.0143 11.8667 18.0163 11.8536 18.0201L11.9372 18.3082ZM11.7715 18.6173C11.7715 18.5174 11.7836 18.4487 11.8076 18.4022C11.8274 18.3637 11.8604 18.3297 11.9358 18.3086L11.855 18.0197C11.7059 18.0614 11.6019 18.1463 11.5409 18.2649C11.484 18.3754 11.4715 18.5018 11.4715 18.6173H11.7715ZM11.7715 21.2432C11.7804 20.3674 11.7804 19.4916 11.7715 18.6157L11.4715 18.6188C11.4804 19.4926 11.4804 20.3663 11.4715 21.2401L11.7715 21.2432ZM12.5538 16.1813C12.5538 16.3558 12.5541 16.5221 12.5544 16.6823L12.8544 16.6818C12.8541 16.5216 12.8538 16.3555 12.8538 16.1813H12.5538ZM12.552 15.5558C12.5582 15.7796 12.5638 15.9856 12.554 16.1735L12.8536 16.1892C12.8641 15.987 12.858 15.7685 12.8519 15.5476L12.552 15.5558ZM12.5914 14.3824C12.5304 14.7856 12.542 15.192 12.552 15.5558L12.8519 15.5476C12.8418 15.1796 12.8317 14.7998 12.888 14.4273L12.5914 14.3824ZM13.8759 12.4813C13.155 12.9077 12.7149 13.5523 12.5913 14.3828L12.8881 14.4269C12.9981 13.6873 13.3843 13.1206 14.0286 12.7395L13.8759 12.4813ZM16.3882 11.0109C15.5485 11.4983 14.7092 11.9855 13.8756 12.4815L14.029 12.7393C14.8609 12.2443 15.6989 11.7579 16.5388 11.2704L16.3882 11.0109ZM16.3863 11.012L16.3863 11.0121L16.5406 11.2693L16.5406 11.2693L16.3863 11.012ZM16.3904 11.0097L16.3904 11.0097L16.5366 11.2717L16.5366 11.2716L16.3904 11.0097ZM16.9936 10.6593L16.3882 11.0109L16.5388 11.2704L17.1443 10.9188L16.9936 10.6593ZM18.2168 10.9224C18.0907 10.7132 17.8988 10.5771 17.6768 10.5306C17.4558 10.4844 17.2161 10.5291 16.9932 10.6596L17.1448 10.9185C17.3126 10.8202 17.477 10.7953 17.6153 10.8243C17.7526 10.853 17.8751 10.9367 17.96 11.0774L18.2168 10.9224ZM17.8721 12.1433C18.101 12.0097 18.2568 11.8162 18.3192 11.5946C18.3818 11.3723 18.3467 11.1342 18.2163 10.9215L17.9605 11.0783C18.0501 11.2244 18.0689 11.3767 18.0305 11.5133C17.9918 11.6505 17.8917 11.7845 17.7209 11.8842L17.8721 12.1433ZM16.6404 12.8579C17.0516 12.6215 17.4631 12.385 17.8728 12.1429L17.7202 11.8846C17.3123 12.1257 16.9024 12.3613 16.4909 12.5978L16.6404 12.8579ZM16.6405 12.8578L16.6407 12.8577L16.4906 12.598L16.4903 12.5981L16.6405 12.8578ZM16.6401 12.858L16.6402 12.858L16.4905 12.598L16.4905 12.598L16.6401 12.858ZM16.6485 12.8528L16.6485 12.8528L16.4821 12.6032L16.4821 12.6032L16.6485 12.8528ZM16.6485 12.8528L16.6485 12.8528L16.4821 12.6032L16.4821 12.6032L16.6485 12.8528ZM15.9496 13.2561C16.1797 13.1227 16.4098 12.9904 16.64 12.8581L16.4905 12.598C16.2604 12.7303 16.0298 12.8628 15.7991 12.9965L15.9496 13.2561ZM15.7754 13.5539C15.7548 13.4859 15.761 13.4432 15.7789 13.4083C15.7997 13.3676 15.8475 13.3161 15.9504 13.2556L15.7984 12.997C15.6723 13.0711 15.5696 13.1587 15.5118 13.2716C15.4511 13.3904 15.4505 13.5159 15.4883 13.6408L15.7754 13.5539ZM16.1049 13.6468C16.0207 13.6953 15.9453 13.6977 15.8916 13.6796C15.839 13.6618 15.7955 13.6207 15.7755 13.5542L15.4882 13.6405C15.5356 13.7983 15.6492 13.9142 15.7954 13.9637C15.9405 14.0129 16.1052 13.9929 16.2547 13.9068L16.1049 13.6468ZM17.7391 12.7095C17.1957 13.0235 16.653 13.3371 16.106 13.6462L16.2535 13.9074C16.8021 13.5975 17.346 13.2831 17.8892 12.9692L17.7391 12.7095ZM17.7396 12.7092L17.7393 12.7094L17.889 12.9694L17.8893 12.9692L17.7396 12.7092ZM17.9232 12.6018C17.8615 12.6377 17.7993 12.6739 17.738 12.7101L17.8909 12.9683C17.9509 12.9327 18.0121 12.8972 18.074 12.8612L17.9232 12.6018ZM18.1063 12.4948C18.0463 12.5303 17.985 12.5659 17.9232 12.6018L18.074 12.8612C18.1356 12.8254 18.1979 12.7892 18.2591 12.7529L18.1063 12.4948ZM18.6303 10.8069C18.9302 11.4588 18.7233 12.1217 18.1051 12.4955L18.2603 12.7522C19.0073 12.3006 19.2675 11.4741 18.9028 10.6815L18.6303 10.8069ZM18.6101 10.4205C18.5689 10.5501 18.5678 10.6696 18.63 10.8063L18.9031 10.6821C18.8754 10.6214 18.8744 10.5794 18.896 10.5116L18.6101 10.4205ZM19.2521 8.44469C19.0395 9.1025 18.8266 9.76092 18.6105 10.4193L18.8956 10.5128C19.1119 9.85373 19.325 9.19468 19.5376 8.53698L19.2521 8.44469ZM19.2522 8.44443L19.2521 8.44474L19.5376 8.53693L19.5377 8.53663L19.2522 8.44443ZM19.2524 8.44395L19.2522 8.44451L19.5377 8.53655L19.5379 8.53599L19.2524 8.44395ZM19.2525 8.44364L19.2523 8.44408L19.538 8.53585L19.5381 8.53542L19.2525 8.44364ZM19.6748 7.1403C19.5336 7.57412 19.3931 8.00862 19.2526 8.44339L19.538 8.53567C19.6786 8.10086 19.819 7.66663 19.9601 7.23314L19.6748 7.1403ZM20.7622 6.49993C20.303 6.36569 19.825 6.66419 19.6744 7.14158L19.9605 7.23186C20.0703 6.88382 20.4007 6.70679 20.678 6.78788L20.7622 6.49993ZM21.332 7.6341C21.4006 7.38007 21.3829 7.1332 21.2818 6.92853C21.1801 6.72258 20.9989 6.56978 20.7626 6.50004L20.6776 6.78777C20.8365 6.83467 20.9495 6.93309 21.0128 7.06136C21.0768 7.1909 21.0949 7.36124 21.0423 7.55582L21.332 7.6341ZM20.8328 9.49918C20.9994 8.87739 21.166 8.25553 21.3321 7.63367L21.0422 7.55625C20.8762 8.17799 20.7096 8.79973 20.543 9.42155L20.8328 9.49918ZM20.8326 9.49987L20.8327 9.49939L20.543 9.42134L20.5429 9.42182L20.8326 9.49987ZM20.8325 9.50035L20.8326 9.49987L20.5429 9.42182L20.5428 9.42229L20.8325 9.50035ZM19.8367 13.232C20.1659 11.9881 20.4992 10.7443 20.8325 9.50014L20.5427 9.4225C20.2094 10.6666 19.8761 11.9109 19.5467 13.1552L19.8367 13.232ZM19.3185 14.0739C19.5853 13.842 19.7487 13.564 19.8367 13.232L19.5467 13.1552C19.473 13.4333 19.3399 13.6578 19.1217 13.8475L19.3185 14.0739ZM18.0132 15.227C18.4481 14.841 18.882 14.4558 19.3189 14.0736L19.1214 13.8478C18.6836 14.2308 18.2488 14.6167 17.8141 15.0026L18.0132 15.227ZM18.0124 15.2277L18.0124 15.2277L17.8149 15.0019L17.8148 15.002L18.0124 15.2277ZM18.0123 15.2278L18.0124 15.2277L17.8148 15.002L17.8147 15.0021L18.0123 15.2278ZM17.0513 16.0786C17.3732 15.7951 17.6934 15.5109 18.0131 15.2271L17.8139 15.0028C17.4941 15.2866 17.1744 15.5704 16.8531 15.8534L17.0513 16.0786ZM16.442 17.4084C16.4503 16.8721 16.6519 16.436 17.0522 16.0778L16.8522 15.8542C16.3903 16.2676 16.1517 16.7826 16.142 17.4037L16.442 17.4084ZM16.4583 17.6232C16.4487 17.5401 16.4409 17.4701 16.442 17.4088L16.1421 17.4033C16.1405 17.4884 16.1512 17.5794 16.1603 17.6576L16.4583 17.6232ZM16.342 18.2227C16.4395 18.1365 16.468 18.0187 16.4748 17.9191C16.4816 17.8205 16.4686 17.7126 16.4583 17.6232L16.1603 17.6576C16.1714 17.7544 16.18 17.833 16.1755 17.8985C16.1711 17.9631 16.1555 17.9872 16.1432 17.998L16.342 18.2227ZM15.7542 18.3132C15.8453 18.3212 15.9515 18.3309 16.0475 18.3256C16.1406 18.3204 16.2556 18.3004 16.3429 18.2219L16.1423 17.9988C16.1331 18.0071 16.1046 18.022 16.031 18.026C15.9606 18.0299 15.8772 18.0229 15.7804 18.0144L15.7542 18.3132ZM15.551 18.3007C15.6108 18.3007 15.678 18.3065 15.7542 18.3132L15.7804 18.0144C15.7074 18.008 15.6264 18.0007 15.551 18.0007V18.3007ZM14.8876 18.3002C15.1085 18.3004 15.3296 18.3007 15.551 18.3007V18.0007C15.3298 18.0007 15.1089 18.0004 14.888 18.0002L14.8876 18.3002ZM12.9029 18.3052C13.5653 18.2985 14.2253 18.2993 14.8876 18.3002L14.888 18.0002C14.226 17.9993 13.5642 17.9985 12.8999 18.0052L12.9029 18.3052ZM12.5493 17.9537C12.5469 18.0408 12.5561 18.1512 12.6404 18.228C12.7191 18.2997 12.8261 18.3052 12.9014 18.3052V18.0052C12.8676 18.0052 12.8481 18.0031 12.8373 18.0007C12.8276 17.9985 12.8334 17.998 12.8424 18.0062C12.8524 18.0153 12.8538 18.0235 12.8526 18.0189C12.8509 18.0122 12.8483 17.9955 12.8492 17.962L12.5493 17.9537ZM12.5544 16.6823C12.5552 17.1407 12.5559 17.5481 12.5493 17.9554L12.8493 17.9603C12.8559 17.5498 12.8552 17.1396 12.8544 16.6818L12.5544 16.6823ZM14.0169 19.0191L14.0181 19.0191L14.0174 18.7191L14.0162 18.7191L14.0169 19.0191ZM12.5535 19.014C13.0431 19.0207 13.53 19.0199 14.0168 19.0191L14.0163 18.7191C13.5291 18.7199 13.0445 18.7207 12.5576 18.714L12.5535 19.014ZM12.49 19.071C12.489 19.0341 12.4918 19.0149 12.4941 19.0063C12.4958 19 12.495 19.007 12.4859 19.0153C12.4777 19.0226 12.4732 19.0215 12.4848 19.019C12.4976 19.0162 12.5191 19.014 12.5556 19.014V18.714C12.4769 18.714 12.3663 18.7192 12.2851 18.7924C12.198 18.8708 12.1877 18.9852 12.1901 19.0787L12.49 19.071ZM12.49 20.8223C12.499 20.2375 12.499 19.6573 12.49 19.0726L12.19 19.0772C12.199 19.6588 12.199 20.236 12.19 20.8176L12.49 20.8223ZM12.5421 20.8718C12.507 20.8718 12.4882 20.8692 12.4788 20.8669C12.4712 20.865 12.4783 20.8653 12.4874 20.8746C12.4964 20.8838 12.4966 20.8907 12.4947 20.8827C12.4924 20.8731 12.49 20.8544 12.49 20.82H12.19C12.19 20.8988 12.1968 21.007 12.2734 21.0849C12.3507 21.1635 12.4596 21.1718 12.5421 21.1718V20.8718ZM16.4408 20.8718C15.1425 20.8673 13.8398 20.8673 12.5416 20.8718L12.5426 21.1718C13.8402 21.1673 15.1422 21.1673 16.4397 21.1718L16.4408 20.8718ZM16.5058 20.8148C16.5068 20.8517 16.504 20.8709 16.5017 20.8795C16.5 20.8859 16.5008 20.8788 16.5099 20.8706C16.5181 20.8632 16.5226 20.8644 16.511 20.8669C16.4983 20.8696 16.4767 20.8718 16.4402 20.8718V21.1718C16.5189 21.1718 16.6295 21.1666 16.7107 21.0935C16.7978 21.015 16.8081 20.9006 16.8057 20.8071L16.5058 20.8148ZM16.5058 19.0636C16.4968 19.6483 16.4968 20.2286 16.5058 20.8133L16.8058 20.8087C16.7968 20.227 16.7968 19.6499 16.8058 19.0682L16.5058 19.0636ZM16.4579 19.014C16.4921 19.013 16.5099 19.0154 16.5181 19.0173C16.5242 19.0188 16.5167 19.0181 16.5075 19.0086C16.4987 18.9995 16.4989 18.9932 16.501 19.0021C16.5034 19.0123 16.5058 19.0315 16.5058 19.0659H16.8058C16.8058 18.9871 16.7989 18.8786 16.7233 18.8002C16.645 18.7191 16.5345 18.7117 16.4495 18.7141L16.4579 19.014ZM14.9929 19.0191C15.4808 19.0199 15.9695 19.0207 16.4558 19.014L16.4516 18.714C15.968 18.7207 15.4817 18.7199 14.9934 18.7191L14.9929 19.0191ZM14.5046 19.0185C14.6674 19.0185 14.8301 19.0188 14.9929 19.0191L14.9934 18.7191C14.8307 18.7188 14.6677 18.7185 14.5046 18.7185V19.0185ZM14.018 19.0191C14.1801 19.0188 14.3423 19.0185 14.5046 19.0185V18.7185C14.342 18.7185 14.1796 18.7188 14.0175 18.7191L14.018 19.0191ZM19.833 5.04043C19.4522 5.03507 19.1099 5.26147 18.9799 5.62943L19.2628 5.72937C19.3483 5.48722 19.5719 5.33678 19.8288 5.3404L19.833 5.04043ZM20.6555 5.71883C20.5737 5.34854 20.2197 5.04595 19.833 5.04043L19.8287 5.3404C20.0708 5.34385 20.3096 5.5437 20.3625 5.78352L20.6555 5.71883ZM20.4016 6.06542C20.4566 6.05696 20.5499 6.0403 20.6113 5.96928C20.6826 5.88675 20.6707 5.78482 20.6552 5.71741L20.3629 5.78494C20.3652 5.79498 20.3663 5.80196 20.3667 5.80647C20.3672 5.81102 20.3669 5.81184 20.3671 5.80991C20.3673 5.80778 20.3681 5.80235 20.371 5.79505C20.374 5.78745 20.3785 5.77984 20.3843 5.77307C20.3958 5.75979 20.4058 5.75729 20.4003 5.7593C20.3979 5.7602 20.3932 5.76168 20.3855 5.76345C20.3778 5.76522 20.3681 5.76703 20.356 5.7689L20.4016 6.06542ZM19.2773 7.01375C19.369 6.73461 19.508 6.51973 19.6906 6.36454C19.873 6.20951 20.1069 6.10718 20.3998 6.06568L20.3577 5.76864C20.0174 5.81686 19.7282 5.93884 19.4963 6.13596C19.2646 6.33293 19.0981 6.59806 18.9923 6.92006L19.2773 7.01375ZM18.3299 9.92896C18.6443 8.95541 18.9586 7.98232 19.2773 7.01379L18.9923 6.92002C18.6733 7.88948 18.3588 8.86335 18.0445 9.83677L18.3299 9.92896ZM18.3208 9.96888C18.3253 9.94608 18.3275 9.9363 18.3295 9.93034L18.0449 9.83538C18.0357 9.86306 18.03 9.89307 18.0265 9.91077L18.3208 9.96888ZM18.0719 10.2069C18.1152 10.2117 18.1614 10.2045 18.2034 10.1791C18.2431 10.1549 18.2671 10.1217 18.2814 10.0952C18.3066 10.0484 18.3162 9.99213 18.3208 9.96888L18.0265 9.91077C18.0233 9.9269 18.0212 9.93749 18.0188 9.94649C18.0164 9.95572 18.0154 9.95647 18.0172 9.95307C18.0192 9.94928 18.0279 9.9346 18.0479 9.92249C18.07 9.90907 18.0919 9.90729 18.105 9.90874L18.0719 10.2069ZM17.6783 10.0892C17.7916 10.1342 17.927 10.1888 18.0698 10.2067L18.107 9.90898C18.0088 9.89672 17.9095 9.85818 17.789 9.81035L17.6783 10.0892ZM17.6122 10.0631C17.6339 10.0715 17.6557 10.0802 17.6783 10.0892L17.789 9.81036C17.7666 9.80147 17.7436 9.7923 17.7204 9.78333L17.6122 10.0631ZM17.5464 9.75463C17.5374 9.78179 17.528 9.81824 17.522 9.84837C17.5191 9.86287 17.5159 9.88121 17.5145 9.89847C17.514 9.90532 17.5128 9.92235 17.5157 9.94188C17.517 9.95028 17.5209 9.97378 17.536 9.99914C17.554 10.0292 17.5967 10.0732 17.6663 10.0732V9.77324C17.696 9.77324 17.7249 9.78217 17.7492 9.79854C17.772 9.81385 17.7858 9.83224 17.7937 9.8455C17.8081 9.86966 17.8115 9.89138 17.8124 9.8975C17.8138 9.9063 17.8138 9.91293 17.8138 9.91562C17.8138 9.91879 17.8137 9.92089 17.8136 9.92151C17.8136 9.92237 17.814 9.91799 17.8161 9.90726C17.8202 9.88692 17.8266 9.86281 17.831 9.84959L17.5464 9.75463ZM18.9797 5.62984C18.4991 7.00285 18.023 8.3758 17.5469 9.75311L17.8305 9.85112C18.3065 8.47397 18.7825 7.10143 19.2629 5.72896L18.9797 5.62984Z" fill="#4BBD60"/>
<path fill-rule="evenodd" clip-rule="evenodd" d="M5.15457 21.2416C5.15457 21.457 5.20846 21.6185 5.38361 21.7396H10.6784C10.7907 21.6364 10.903 21.5332 10.903 21.3538C10.8985 20.4117 10.8985 19.4696 10.8985 18.5276C10.8985 18.3705 10.8401 18.236 10.6874 18.1911C10.5392 18.1507 10.5392 18.061 10.5392 17.9444C10.5392 17.6253 10.5404 17.3062 10.5416 16.9872C10.5445 16.2434 10.5473 15.5002 10.5347 14.7592C10.5123 13.5659 9.98681 12.6328 8.96288 12.0093C8.19489 11.5403 7.41689 11.0888 6.64009 10.638L6.6398 10.6378L6.6395 10.6376C6.37627 10.4849 6.11318 10.3322 5.85066 10.1789C5.75186 10.1206 5.68001 10.0578 5.63959 9.94118C5.3881 9.2077 5.13324 8.47423 4.87838 7.74075L4.87833 7.74062L4.87829 7.7405C4.62346 7.0071 4.36862 6.27371 4.11716 5.54032C3.86567 4.80909 3.21897 4.37842 2.47797 4.4816C1.79984 4.57581 1.31033 5.17695 1.29236 5.94856C1.28787 6.03828 1.26991 6.0966 1.19356 6.15492C0.632197 6.57212 0.461541 7.1284 0.641179 7.79683C0.734144 8.14068 0.827266 8.48438 0.920369 8.828L0.920401 8.82812L0.920432 8.82823C1.32654 10.3271 1.73229 11.8247 2.12319 13.3282C2.25792 13.8351 2.5139 14.2299 2.9091 14.5708C3.46485 15.052 4.01303 15.5407 4.5612 16.0294C4.74393 16.1923 4.92665 16.3552 5.10966 16.5178C5.34768 16.7331 5.49588 16.9933 5.50935 17.3163C5.51608 17.4911 5.51525 17.6634 5.51441 17.837C5.51412 17.895 5.51384 17.9532 5.51384 18.0117L5.51396 18.0278C5.51462 18.0882 5.51518 18.1394 5.42851 18.1642C5.20397 18.227 5.15457 18.4019 5.15457 18.6173C5.16355 19.4921 5.16355 20.3669 5.15457 21.2416ZM9.83063 15.8173C9.83013 15.9793 9.82963 16.1411 9.82963 16.3025C9.82963 16.5806 9.82851 16.8576 9.82738 17.1346C9.82626 17.4116 9.82514 17.6887 9.82514 17.9668C9.82514 18.1059 9.7937 18.1597 9.64101 18.1597C8.56319 18.1552 7.48536 18.1552 6.40754 18.1597C6.25036 18.1597 6.22341 18.1059 6.22341 17.9668C6.22341 17.8877 6.22552 17.8087 6.22763 17.7296L6.22764 17.7295C6.23367 17.5036 6.23971 17.2776 6.19646 17.0516C6.11563 16.6165 5.89557 16.2621 5.56773 15.9705C5.30506 15.7376 5.04239 15.5042 4.77954 15.2706C4.28289 14.8292 3.78557 14.3873 3.28634 13.9473C3.06628 13.7544 2.92257 13.5256 2.84623 13.2385C2.60553 12.3325 2.36174 11.4266 2.11782 10.5201L2.1178 10.52C1.85202 9.53234 1.58608 8.54407 1.3238 7.55458C1.18907 7.03419 1.5708 6.57212 2.07828 6.63941C2.37468 6.67979 2.59473 6.84577 2.68904 7.13288C2.92647 7.8501 3.16024 8.56913 3.39386 9.28766L3.39392 9.28785C3.52706 9.69733 3.66014 10.1067 3.79381 10.5154C3.82076 10.6006 3.79831 10.6724 3.76238 10.7487C3.43903 11.453 3.65909 12.2067 4.31476 12.6014C4.83595 12.9145 5.36542 13.2166 5.89452 13.5184L5.89476 13.5185L5.89483 13.5186C6.04037 13.6016 6.18589 13.6846 6.33119 13.7678C6.55574 13.8934 6.74885 13.853 6.86112 13.6736C6.97789 13.4852 6.91501 13.2743 6.69047 13.1442C6.18385 12.847 5.67164 12.5525 5.16045 12.2586L4.75038 12.0227C4.52584 11.8926 4.36416 11.7177 4.3462 11.444C4.32824 11.1614 4.41805 10.9281 4.66506 10.7711C4.92553 10.6051 5.1905 10.6141 5.45097 10.7666C5.80577 10.9752 6.16057 11.1827 6.51538 11.3902L6.51556 11.3903L6.51575 11.3904C6.87039 11.5978 7.22503 11.8052 7.57967 12.0138L7.57973 12.0138C7.88958 12.1932 8.19944 12.3726 8.5093 12.5566C9.38054 13.068 9.82065 13.8351 9.82963 14.8445C9.83263 15.1676 9.83162 15.4928 9.83063 15.8173ZM7.54638 18.8691L7.54515 18.8691C7.05816 18.8699 6.57244 18.8707 6.08419 18.864C5.93599 18.864 5.87312 18.8954 5.87761 19.0569C5.88659 19.6446 5.88659 20.2368 5.87761 20.8244C5.87312 20.9904 5.94048 21.0173 6.08868 21.0173C7.38656 21.0128 8.68893 21.0128 9.98681 21.0173C10.162 21.0173 10.1979 20.959 10.1934 20.7975C10.1844 20.2233 10.1799 19.6491 10.1934 19.0749C10.1979 18.8864 10.126 18.855 9.95987 18.8595C9.44611 18.8703 8.93234 18.8696 8.41858 18.8689C8.29014 18.8687 8.1617 18.8685 8.03326 18.8685C7.87073 18.8685 7.70848 18.8688 7.54638 18.8691ZM2.02439 5.74668C2.08277 5.43714 2.37468 5.19041 2.69354 5.19041C3.0079 5.19041 3.29981 5.37434 3.4031 5.6749C3.67082 6.43719 3.93714 7.20227 4.20362 7.9678C4.41545 8.57634 4.62739 9.18518 4.8402 9.79314C4.8896 9.9322 4.83571 9.95464 4.72344 9.98155C4.56092 10.0221 4.48122 10.0435 4.42903 10.0148C4.37738 9.98635 4.35267 9.90896 4.30129 9.75276C4.22505 9.51634 4.14911 9.28022 4.07323 9.0443C3.84963 8.34909 3.62662 7.65575 3.39861 6.96241C3.20101 6.36128 2.78335 6.00688 2.15462 5.91267C2.03786 5.89472 2.00193 5.86332 2.02439 5.74668Z" fill="#4BBD60"/>
<path d="M5.38361 21.7396L5.29829 21.863L5.33679 21.8896H5.38361V21.7396ZM5.15457 21.2416L5.00457 21.2401V21.2416H5.15457ZM10.6784 21.7396V21.8896H10.7369L10.7799 21.85L10.6784 21.7396ZM10.903 21.3538H11.053L11.053 21.3531L10.903 21.3538ZM10.6874 18.1911L10.7297 18.0472L10.7268 18.0464L10.6874 18.1911ZM10.5416 16.9872L10.3916 16.9867L10.5416 16.9872ZM10.5347 14.7592L10.6847 14.7567L10.6847 14.7564L10.5347 14.7592ZM8.96288 12.0093L8.8847 12.1373L8.88486 12.1374L8.96288 12.0093ZM6.64009 10.638L6.56451 10.7675L6.5648 10.7677L6.64009 10.638ZM6.6395 10.6376L6.71509 10.5081L6.71479 10.5079L6.6395 10.6376ZM5.85066 10.1789L5.77441 10.3081L5.77504 10.3085L5.85066 10.1789ZM5.63959 9.94118L5.4977 9.98983L5.49786 9.99029L5.63959 9.94118ZM4.87838 7.74075L4.73655 7.7896L4.73669 7.78999L4.87838 7.74075ZM4.87829 7.7405L5.02011 7.69165L5.01998 7.69126L4.87829 7.7405ZM4.11716 5.54032L4.25905 5.49167L4.25901 5.49154L4.11716 5.54032ZM2.47797 4.4816L2.49861 4.63018L2.49866 4.63017L2.47797 4.4816ZM1.29236 5.94856L1.44223 5.95606L1.44232 5.95205L1.29236 5.94856ZM1.19356 6.15492L1.28305 6.27532L1.28462 6.27412L1.19356 6.15492ZM0.641179 7.79683L0.496318 7.83576L0.496377 7.83597L0.641179 7.79683ZM0.920369 8.828L0.775589 8.86723L0.775613 8.86732L0.920369 8.828ZM0.920401 8.82812L1.06517 8.78884L1.06516 8.7888L0.920401 8.82812ZM0.920432 8.82823L1.06521 8.78901L1.0652 8.78895L0.920432 8.82823ZM2.12319 13.3282L1.97801 13.3659L1.97822 13.3667L2.12319 13.3282ZM2.9091 14.5708L3.00728 14.4574L3.00708 14.4572L2.9091 14.5708ZM4.5612 16.0294L4.46138 16.1413L4.5612 16.0294ZM5.10966 16.5178L5.21029 16.4065L5.2093 16.4057L5.10966 16.5178ZM5.50935 17.3163L5.65924 17.3105L5.65922 17.3101L5.50935 17.3163ZM5.51441 17.837L5.36441 17.8363V17.8363L5.51441 17.837ZM5.51384 18.0117H5.36384L5.36385 18.0127L5.51384 18.0117ZM5.51396 18.0278L5.36396 18.0289L5.36397 18.0295L5.51396 18.0278ZM5.42851 18.1642L5.46892 18.3086L5.46968 18.3084L5.42851 18.1642ZM5.15457 18.6173H5.00456L5.00458 18.6188L5.15457 18.6173ZM9.83063 15.8173L9.98063 15.8178L9.83063 15.8173ZM9.82738 17.1346L9.97738 17.1352V17.1352L9.82738 17.1346ZM9.64101 18.1597L9.64039 18.3097H9.64101V18.1597ZM6.40754 18.1597V18.3097L6.40816 18.3097L6.40754 18.1597ZM6.22763 17.7296L6.37758 17.7336L6.37758 17.7335L6.22763 17.7296ZM6.22764 17.7295L6.07769 17.7255L6.07769 17.7256L6.22764 17.7295ZM6.19646 17.0516L6.04899 17.079L6.04914 17.0798L6.19646 17.0516ZM5.56773 15.9705L5.66742 15.8584L5.66725 15.8582L5.56773 15.9705ZM4.77954 15.2706L4.87918 15.1585V15.1585L4.77954 15.2706ZM3.28634 13.9473L3.38552 13.8347L3.38522 13.8345L3.28634 13.9473ZM2.84623 13.2385L2.70126 13.277L2.70126 13.277L2.84623 13.2385ZM2.11782 10.5201L2.26267 10.4811L2.2626 10.4809L2.11782 10.5201ZM2.1178 10.52L1.97295 10.559L1.97301 10.5592L2.1178 10.52ZM1.3238 7.55458L1.17859 7.59217L1.17881 7.59301L1.3238 7.55458ZM2.07828 6.63941L2.09852 6.49079L2.098 6.49072L2.07828 6.63941ZM2.68904 7.13288L2.54654 7.1797L2.54664 7.18002L2.68904 7.13288ZM3.39386 9.28766L3.53661 9.24158L3.53651 9.24128L3.39386 9.28766ZM3.39392 9.28785L3.25117 9.33393L3.25127 9.33422L3.39392 9.28785ZM3.79381 10.5154L3.93684 10.4702L3.93638 10.4688L3.79381 10.5154ZM3.76238 10.7487L3.62668 10.6847L3.62606 10.6861L3.76238 10.7487ZM4.31476 12.6014L4.23739 12.7299L4.23752 12.73L4.31476 12.6014ZM5.89452 13.5184L5.82019 13.6487L5.82061 13.6489L5.89452 13.5184ZM5.89476 13.5185L5.82084 13.649L5.82126 13.6493L5.89476 13.5185ZM5.89483 13.5186L5.96916 13.3883L5.96833 13.3878L5.89483 13.5186ZM6.33119 13.7678L6.25664 13.898L6.25796 13.8987L6.33119 13.7678ZM6.86112 13.6736L6.98829 13.7532L6.98863 13.7526L6.86112 13.6736ZM6.69047 13.1442L6.61455 13.2736L6.61527 13.274L6.69047 13.1442ZM5.16045 12.2586L5.08566 12.3886L5.08569 12.3886L5.16045 12.2586ZM4.75038 12.0227L4.67519 12.1525L4.67559 12.1527L4.75038 12.0227ZM4.3462 11.444L4.1965 11.4535L4.19652 11.4538L4.3462 11.444ZM4.66506 10.7711L4.74553 10.8977L4.74567 10.8976L4.66506 10.7711ZM5.45097 10.7666L5.527 10.6373L5.52677 10.6372L5.45097 10.7666ZM6.51538 11.3902L6.59139 11.2609L6.5911 11.2607L6.51538 11.3902ZM6.51575 11.3904L6.43974 11.5198L6.44003 11.5199L6.51575 11.3904ZM7.57967 12.0138L7.50364 12.1431L7.5049 12.1438L7.57967 12.0138ZM7.57973 12.0138L7.6549 11.884L7.6545 11.8837L7.57973 12.0138ZM8.5093 12.5566L8.43273 12.6856L8.43336 12.6859L8.5093 12.5566ZM9.82963 14.8445L9.67964 14.8458V14.8459L9.82963 14.8445ZM7.54515 18.8691L7.54541 19.0191H7.5455L7.54515 18.8691ZM7.54638 18.8691L7.54612 18.7191H7.54603L7.54638 18.8691ZM6.08419 18.864L6.08626 18.714H6.08419V18.864ZM5.87761 19.0569L6.0276 19.0546L6.02755 19.0527L5.87761 19.0569ZM5.87761 20.8244L6.02756 20.8285L6.02759 20.8267L5.87761 20.8244ZM6.08868 21.0173V21.1673L6.0892 21.1673L6.08868 21.0173ZM9.98681 21.0173L9.98629 21.1673H9.98681V21.0173ZM10.1934 20.7975L10.0434 20.7999L10.0435 20.8017L10.1934 20.7975ZM10.1934 19.0749L10.0434 19.0713L10.0434 19.0713L10.1934 19.0749ZM9.95987 18.8595L9.96301 19.0095L9.96392 19.0095L9.95987 18.8595ZM8.41858 18.8689L8.41879 18.7189H8.41879L8.41858 18.8689ZM2.02439 5.74668L2.17168 5.77504L2.17179 5.77448L2.02439 5.74668ZM3.4031 5.6749L3.26124 5.72366L3.26158 5.72461L3.4031 5.6749ZM4.20362 7.9678L4.34528 7.91849L4.20362 7.9678ZM4.8402 9.79314L4.69862 9.8427L4.69886 9.84335L4.8402 9.79314ZM4.72344 9.98155L4.68847 9.83568L4.68709 9.83602L4.72344 9.98155ZM4.42903 10.0148L4.35675 10.1462L4.35675 10.1462L4.42903 10.0148ZM4.30129 9.75276L4.15853 9.7988L4.1588 9.79963L4.30129 9.75276ZM4.07323 9.0443L3.93043 9.09023L4.07323 9.0443ZM3.39861 6.96241L3.25611 7.00925L3.25612 7.00927L3.39861 6.96241ZM2.15462 5.91267L2.13184 6.06093L2.1324 6.06101L2.15462 5.91267ZM5.46892 21.6162C5.40275 21.5705 5.36467 21.5214 5.34126 21.4668C5.31678 21.4098 5.30457 21.3378 5.30457 21.2416H5.00457C5.00457 21.3608 5.0193 21.4773 5.06556 21.5851C5.11288 21.6954 5.18931 21.7876 5.29829 21.863L5.46892 21.6162ZM10.6784 21.5896H5.38361V21.8896H10.6784V21.5896ZM10.753 21.3538C10.753 21.459 10.6951 21.5205 10.5769 21.6291L10.7799 21.85C10.8863 21.7523 11.053 21.6074 11.053 21.3538H10.753ZM10.7485 18.5276C10.7485 19.4696 10.7485 20.412 10.753 21.3545L11.053 21.3531C11.0485 20.4114 11.0485 19.4697 11.0485 18.5276H10.7485ZM10.6451 18.335C10.6838 18.3464 10.7053 18.3661 10.72 18.3917C10.7368 18.4211 10.7485 18.466 10.7485 18.5276H11.0485C11.0485 18.4321 11.031 18.3312 10.9804 18.2428C10.9277 18.1507 10.8437 18.0807 10.7297 18.0472L10.6451 18.335ZM10.3892 17.9444C10.3892 17.9931 10.3866 18.0799 10.4205 18.1568C10.4621 18.2514 10.5436 18.3074 10.648 18.3358L10.7268 18.0464C10.7029 18.0398 10.6942 18.0338 10.6927 18.0327C10.6922 18.0323 10.6927 18.0326 10.6937 18.0338C10.6946 18.035 10.695 18.0359 10.695 18.0359C10.6947 18.0352 10.6924 18.0295 10.6909 18.0128C10.6893 17.9955 10.6892 17.9751 10.6892 17.9444H10.3892ZM10.3916 16.9867C10.3904 17.3056 10.3892 17.6249 10.3892 17.9444H10.6892C10.6892 17.6256 10.6904 17.3068 10.6916 16.9878L10.3916 16.9867ZM10.3847 14.7618C10.3973 15.5009 10.3945 16.2426 10.3916 16.9867L10.6916 16.9878C10.6945 16.2442 10.6973 15.4995 10.6847 14.7567L10.3847 14.7618ZM8.88486 12.1374C9.86424 12.7338 10.3632 13.6192 10.3847 14.7621L10.6847 14.7564C10.6613 13.5126 10.1094 12.5319 9.0409 11.8812L8.88486 12.1374ZM6.5648 10.7677C7.34184 11.2186 8.11839 11.6693 8.8847 12.1373L9.04106 11.8812C8.2714 11.4112 7.49194 10.9589 6.71538 10.5082L6.5648 10.7677ZM6.56422 10.7674L6.56451 10.7675L6.71567 10.5084L6.71538 10.5082L6.56422 10.7674ZM6.56392 10.7672L6.56422 10.7674L6.71538 10.5082L6.71508 10.5081L6.56392 10.7672ZM5.77504 10.3085C6.03775 10.4618 6.30101 10.6146 6.56422 10.7674L6.71479 10.5079C6.45153 10.3551 6.18861 10.2025 5.92629 10.0494L5.77504 10.3085ZM5.49786 9.99029C5.55431 10.1532 5.65896 10.24 5.77441 10.3081L5.92691 10.0498C5.84477 10.0013 5.8057 9.96242 5.78132 9.89206L5.49786 9.99029ZM4.73669 7.78999C4.99156 8.52351 5.24632 9.25669 5.4977 9.98983L5.78148 9.89253C5.52987 9.15871 5.27491 8.42495 5.02007 7.69152L4.73669 7.78999ZM4.73651 7.78947L4.73655 7.7896L5.0202 7.6919L5.02015 7.69177L4.73651 7.78947ZM4.73646 7.78935L4.73651 7.78947L5.02015 7.69177L5.02011 7.69165L4.73646 7.78935ZM3.97527 5.58897C4.22685 6.3227 4.48178 7.05639 4.7366 7.78973L5.01998 7.69126C4.76513 6.95782 4.5104 6.22472 4.25905 5.49167L3.97527 5.58897ZM2.49866 4.63017C3.16181 4.53783 3.74486 4.91904 3.97532 5.58911L4.25901 5.49154C3.98648 4.69914 3.27614 4.21902 2.45728 4.33304L2.49866 4.63017ZM1.44232 5.95205C1.45887 5.24123 1.90526 4.71261 2.49861 4.63018L2.45733 4.33303C1.69442 4.43902 1.16178 5.11267 1.1424 5.94507L1.44232 5.95205ZM1.28462 6.27412C1.33857 6.23291 1.38036 6.18478 1.40715 6.12406C1.43269 6.06615 1.43959 6.00767 1.44218 5.95606L1.14255 5.94106C1.14064 5.97917 1.13632 5.9947 1.13267 6.00297C1.13027 6.00841 1.12491 6.01861 1.10251 6.03572L1.28462 6.27412ZM0.786038 7.75789C0.702047 7.44537 0.702641 7.16975 0.781984 6.92853C0.861123 6.68793 1.02281 6.46871 1.28304 6.27531L1.10409 6.03452C0.802951 6.25833 0.598626 6.52585 0.497005 6.83479C0.395587 7.14312 0.400672 7.47986 0.496319 7.83576L0.786038 7.75789ZM1.06515 8.78878C0.972044 8.44514 0.878933 8.10148 0.78598 7.75768L0.496377 7.83597C0.589355 8.17987 0.682488 8.52361 0.775589 8.86723L1.06515 8.78878ZM1.06516 8.7888L1.06512 8.78869L0.775613 8.86732L0.775645 8.86743L1.06516 8.7888ZM1.0652 8.78895L1.06517 8.78884L0.775635 8.8674L0.775667 8.86752L1.0652 8.78895ZM2.26836 13.2904C1.87724 11.7861 1.47129 10.2878 1.06521 8.78901L0.775652 8.86746C1.18179 10.3665 1.58734 11.8633 1.97801 13.3659L2.26836 13.2904ZM3.00708 14.4572C2.63356 14.135 2.39474 13.7659 2.26815 13.2896L1.97822 13.3667C2.12109 13.9043 2.39423 14.3247 2.81112 14.6844L3.00708 14.4572ZM4.66102 15.9174C4.11298 15.4288 3.56399 14.9394 3.00728 14.4574L2.81092 14.6842C3.36571 15.1645 3.91307 15.6525 4.46138 16.1413L4.66102 15.9174ZM5.2093 16.4057C5.02639 16.2431 4.84376 16.0803 4.66102 15.9174L4.46138 16.1413C4.64409 16.3042 4.82691 16.4672 5.01002 16.6299L5.2093 16.4057ZM5.65922 17.3101C5.64374 16.9388 5.47157 16.6429 5.21029 16.4066L5.00903 16.629C5.22379 16.8233 5.34802 17.0478 5.35948 17.3226L5.65922 17.3101ZM5.6644 17.8377C5.66524 17.6647 5.66612 17.4891 5.65924 17.3105L5.35946 17.3221C5.36605 17.4931 5.36525 17.6622 5.36441 17.8363L5.6644 17.8377ZM5.66384 18.0117C5.66384 17.9536 5.66412 17.8958 5.6644 17.8377L5.36441 17.8363C5.36413 17.8942 5.36384 17.9528 5.36384 18.0117H5.66384ZM5.66396 18.0267L5.66384 18.0106L5.36385 18.0127L5.36396 18.0289L5.66396 18.0267ZM5.46968 18.3084C5.54153 18.2879 5.60665 18.2463 5.64065 18.1712C5.6676 18.1116 5.66418 18.0474 5.66395 18.0262L5.36397 18.0295C5.36406 18.0373 5.36411 18.043 5.36404 18.0481C5.36398 18.0531 5.36382 18.0561 5.36366 18.0579C5.36331 18.0619 5.36325 18.0565 5.36732 18.0475C5.36946 18.0428 5.37244 18.0377 5.37635 18.0328C5.38025 18.0279 5.38426 18.0242 5.38768 18.0216C5.39424 18.0166 5.39633 18.0174 5.38735 18.0199L5.46968 18.3084ZM5.30457 18.6173C5.30457 18.5174 5.31676 18.4487 5.3407 18.4022C5.3605 18.3637 5.3935 18.3297 5.46892 18.3086L5.38811 18.0197C5.23898 18.0614 5.13501 18.1463 5.07397 18.2649C5.01708 18.3754 5.00457 18.5018 5.00457 18.6173H5.30457ZM5.30456 21.2432C5.31355 20.3674 5.31355 19.4915 5.30456 18.6157L5.00458 18.6188C5.01355 19.4926 5.01355 20.3663 5.00458 21.2401L5.30456 21.2432ZM9.97963 16.3025C9.97963 16.1414 9.98013 15.9798 9.98063 15.8178L9.68063 15.8168C9.68013 15.9788 9.67963 16.1408 9.67963 16.3025H9.97963ZM9.97738 17.1352C9.97851 16.8583 9.97963 16.5809 9.97963 16.3025H9.67963C9.67963 16.5802 9.67851 16.8569 9.67739 17.134L9.97738 17.1352ZM9.97514 17.9668C9.97514 17.689 9.97626 17.4123 9.97738 17.1352L9.67739 17.134C9.67626 17.411 9.67514 17.6883 9.67514 17.9668H9.97514ZM9.64101 18.3097C9.72558 18.3097 9.83092 18.2969 9.9033 18.2141C9.97055 18.1371 9.97514 18.0356 9.97514 17.9668H9.67514C9.67514 17.9974 9.67326 18.0145 9.67125 18.0238C9.66947 18.032 9.6693 18.0259 9.67737 18.0167C9.68628 18.0065 9.69468 18.0044 9.69167 18.0053C9.6865 18.0068 9.67185 18.0097 9.64101 18.0097V18.3097ZM6.40816 18.3097C7.48557 18.3052 8.56298 18.3052 9.64039 18.3097L9.64164 18.0097C8.5634 18.0052 7.48515 18.0052 6.40691 18.0097L6.40816 18.3097ZM6.07341 17.9668C6.07341 18.0325 6.0761 18.1352 6.14255 18.2129C6.21499 18.2976 6.32235 18.3097 6.40754 18.3097V18.0097C6.37521 18.0097 6.35999 18.0067 6.35465 18.0052C6.35163 18.0043 6.36092 18.0067 6.37051 18.0179C6.37911 18.0279 6.37887 18.0346 6.37709 18.0258C6.37509 18.016 6.37341 17.9983 6.37341 17.9668H6.07341ZM6.07769 17.7256C6.07558 17.8043 6.07341 17.8854 6.07341 17.9668H6.37341C6.37341 17.8901 6.37546 17.813 6.37758 17.7336L6.07769 17.7256ZM6.07769 17.7256L6.07769 17.7256L6.37758 17.7335L6.37758 17.7335L6.07769 17.7256ZM6.04914 17.0798C6.08883 17.2872 6.0838 17.497 6.07769 17.7255L6.37758 17.7335C6.38355 17.5101 6.39059 17.268 6.34379 17.0234L6.04914 17.0798ZM5.46804 16.0826C5.77428 16.3549 5.97499 16.6807 6.04899 17.079L6.34394 17.0242C6.25626 16.5523 6.01686 16.1692 5.66742 15.8584L5.46804 16.0826ZM4.6799 15.3827C4.94274 15.6163 5.20548 15.8498 5.46822 16.0827L5.66725 15.8582C5.40465 15.6254 5.14204 15.3921 4.87918 15.1585L4.6799 15.3827ZM3.18716 14.0598C3.68612 14.4996 4.18321 14.9413 4.6799 15.3827L4.87918 15.1585C4.38257 14.7171 3.88502 14.275 3.38552 13.8347L3.18716 14.0598ZM2.70126 13.277C2.78534 13.5932 2.94524 13.8477 3.18746 14.0601L3.38522 13.8345C3.18732 13.661 3.05981 13.4579 2.99119 13.1999L2.70126 13.277ZM1.97297 10.5591C2.2169 11.4656 2.46063 12.3713 2.70126 13.277L2.9912 13.1999C2.75043 12.2937 2.50658 11.3875 2.26267 10.4811L1.97297 10.5591ZM1.97301 10.5592L1.97304 10.5593L2.2626 10.4809L2.26258 10.4808L1.97301 10.5592ZM1.17881 7.59301C1.44117 8.58282 1.70718 9.57136 1.97295 10.559L2.26264 10.481C1.99685 9.49332 1.73099 8.50532 1.46879 7.51614L1.17881 7.59301ZM2.098 6.49072C1.47281 6.40782 1.02035 6.98098 1.17859 7.59217L1.46901 7.51698C1.35779 7.0874 1.6688 6.73643 2.05856 6.78811L2.098 6.49072ZM2.83155 7.08607C2.71763 6.73926 2.44621 6.53815 2.09852 6.49079L2.05803 6.78804C2.30315 6.82143 2.47184 6.95229 2.54654 7.1797L2.83155 7.08607ZM3.53651 9.24128C3.30292 8.52281 3.06901 7.8034 2.83144 7.08574L2.54664 7.18002C2.78392 7.89679 3.01757 8.61545 3.25121 9.33404L3.53651 9.24128ZM3.53666 9.24176L3.53661 9.24158L3.25111 9.33375L3.25117 9.33393L3.53666 9.24176ZM3.93638 10.4688C3.80276 10.0602 3.66971 9.65098 3.53657 9.24147L3.25127 9.33422C3.3844 9.74369 3.51752 10.1531 3.65125 10.562L3.93638 10.4688ZM3.89807 10.8126C3.93889 10.726 3.98117 10.6104 3.93684 10.4702L3.65079 10.5606C3.66035 10.5908 3.65772 10.6189 3.62668 10.6847L3.89807 10.8126ZM4.39213 12.4729C3.80443 12.1191 3.60597 11.4489 3.8987 10.8113L3.62606 10.6861C3.27209 11.4571 3.51374 12.2942 4.23739 12.7299L4.39213 12.4729ZM5.96885 13.3881C5.4395 13.0861 4.9115 12.7849 4.392 12.4728L4.23752 12.73C4.7604 13.0441 5.29135 13.347 5.82019 13.6487L5.96885 13.3881ZM5.96867 13.388L5.96843 13.3879L5.82061 13.6489L5.82084 13.649L5.96867 13.388ZM5.96833 13.3878L5.96826 13.3878L5.82126 13.6493L5.82133 13.6493L5.96833 13.3878ZM6.40574 13.6376C6.2603 13.5544 6.11468 13.4713 5.96915 13.3883L5.8205 13.6488C5.96607 13.7319 6.11147 13.8148 6.25664 13.898L6.40574 13.6376ZM6.73396 13.594C6.6967 13.6536 6.65401 13.6796 6.61081 13.6876C6.56446 13.6963 6.49583 13.688 6.40442 13.6369L6.25796 13.8987C6.3911 13.9732 6.5313 14.0076 6.66571 13.9826C6.80327 13.957 6.91327 13.8731 6.98828 13.7532L6.73396 13.594ZM6.61527 13.274C6.70295 13.3248 6.74525 13.3831 6.76074 13.4322C6.77551 13.479 6.77132 13.5338 6.73362 13.5946L6.98863 13.7526C7.06769 13.625 7.09045 13.4802 7.04684 13.3419C7.00394 13.2059 6.90253 13.0938 6.76566 13.0145L6.61527 13.274ZM5.08569 12.3886C5.59697 12.6826 6.1086 12.9767 6.61455 13.2736L6.76638 13.0149C6.25909 12.7172 5.7463 12.4224 5.23521 12.1286L5.08569 12.3886ZM4.67559 12.1527L5.08566 12.3886L5.23524 12.1286L4.82517 11.8927L4.67559 12.1527ZM4.19652 11.4538C4.21896 11.7957 4.42612 12.0082 4.67519 12.1525L4.82558 11.8929C4.62555 11.777 4.50936 11.6396 4.49588 11.4342L4.19652 11.4538ZM4.58459 10.6445C4.28259 10.8365 4.17579 11.1276 4.1965 11.4535L4.4959 11.4345C4.48069 11.1952 4.55352 11.0197 4.74553 10.8977L4.58459 10.6445ZM5.52677 10.6372C5.37839 10.5503 5.22136 10.5001 5.05865 10.4994C4.89522 10.4987 4.73601 10.548 4.58445 10.6446L4.74567 10.8976C4.85458 10.8282 4.95809 10.799 5.05737 10.7994C5.15738 10.7998 5.26308 10.8304 5.37517 10.8961L5.52677 10.6372ZM6.5911 11.2607C6.23627 11.0532 5.88162 10.8458 5.527 10.6373L5.37494 10.8959C5.72992 11.1046 6.08488 11.3122 6.43965 11.5197L6.5911 11.2607ZM6.59157 11.261L6.59139 11.2609L6.43937 11.5195L6.43956 11.5196L6.59157 11.261ZM6.59176 11.2611L6.59157 11.261L6.43956 11.5196L6.43974 11.5198L6.59176 11.2611ZM7.6557 11.8844C7.30088 11.6758 6.94609 11.4683 6.59148 11.261L6.44003 11.5199C6.79469 11.7273 7.14918 11.9346 7.50364 12.1431L7.6557 11.8844ZM7.6545 11.8837L7.65444 11.8837L7.5049 12.1438L7.50496 12.1438L7.6545 11.8837ZM8.58586 12.4276C8.27519 12.2432 7.96464 12.0633 7.6549 11.884L7.50456 12.1436C7.81453 12.3231 8.12369 12.5021 8.43273 12.6856L8.58586 12.4276ZM9.97962 14.8431C9.97018 13.7814 9.50228 12.9655 8.58523 12.4272L8.43336 12.6859C9.2588 13.1705 9.67112 13.8888 9.67964 14.8458L9.97962 14.8431ZM9.98063 15.8178C9.98162 15.4934 9.98263 15.1673 9.97962 14.8431L9.67964 14.8459C9.68262 15.1679 9.68163 15.4922 9.68063 15.8168L9.98063 15.8178ZM7.5455 19.0191L7.54673 19.0191L7.54603 18.7191L7.5448 18.7191L7.5455 19.0191ZM6.08212 19.014C6.57173 19.0207 7.05861 19.0199 7.54541 19.0191L7.54489 18.7191C7.05771 18.7199 6.57315 18.7207 6.08626 18.714L6.08212 19.014ZM6.02755 19.0527C6.02666 19.0207 6.02961 19.0059 6.03101 19.0011C6.03165 18.999 6.02928 19.0071 6.01961 19.0152C6.01151 19.0219 6.00753 19.0207 6.01889 19.0184C6.03097 19.0159 6.05101 19.014 6.08419 19.014V18.714C6.01189 18.714 5.90717 18.7184 5.82767 18.7846C5.73857 18.8588 5.72511 18.969 5.72767 19.0611L6.02755 19.0527ZM6.02759 20.8267C6.0366 20.2375 6.0366 19.6438 6.02759 19.0546L5.72763 19.0592C5.73658 19.6454 5.73658 20.236 5.72763 20.8221L6.02759 20.8267ZM6.08868 20.8673C6.0547 20.8673 6.0337 20.8657 6.02039 20.8631C6.00765 20.8607 6.01092 20.8591 6.01883 20.8654C6.02874 20.8732 6.03159 20.8817 6.03116 20.8803C6.02984 20.876 6.02667 20.8613 6.02755 20.8285L5.72766 20.8204C5.72508 20.9157 5.74018 21.0276 5.83294 21.1009C5.91343 21.1644 6.01857 21.1673 6.08868 21.1673V20.8673ZM9.98733 20.8673C8.68911 20.8628 7.38639 20.8628 6.08816 20.8673L6.0892 21.1673C7.38673 21.1628 8.68876 21.1628 9.98629 21.1673L9.98733 20.8673ZM10.0435 20.8017C10.0445 20.8378 10.0428 20.8591 10.0404 20.8714C10.0382 20.8825 10.0371 20.8778 10.0444 20.8694C10.0524 20.8602 10.0592 20.8595 10.0524 20.8615C10.0434 20.8641 10.0239 20.8673 9.98681 20.8673V21.1673C10.08 21.1673 10.1939 21.1545 10.2705 21.0666C10.3429 20.9836 10.3455 20.8727 10.3433 20.7933L10.0435 20.8017ZM10.0434 19.0713C10.0299 19.6485 10.0344 20.225 10.0434 20.7999L10.3434 20.7952C10.3344 20.2216 10.33 19.6496 10.3434 19.0784L10.0434 19.0713ZM9.96392 19.0095C10.002 19.0084 10.0259 19.0099 10.0412 19.0125C10.0558 19.0151 10.0535 19.0173 10.0464 19.0115C10.0376 19.0044 10.0366 18.9978 10.0383 19.0037C10.0409 19.0122 10.0444 19.0322 10.0434 19.0713L10.3434 19.0784C10.3458 18.9748 10.3307 18.8556 10.2349 18.7782C10.1489 18.7087 10.0354 18.7074 9.95582 18.7096L9.96392 19.0095ZM8.41837 19.0189C8.93185 19.0196 9.44729 19.0203 9.96301 19.0095L9.95672 18.7096C9.44492 18.7203 8.93283 18.7196 8.41879 18.7189L8.41837 19.0189ZM8.03326 19.0185C8.16158 19.0185 8.28991 19.0187 8.41837 19.0189L8.41879 18.7189C8.29037 18.7187 8.16182 18.7185 8.03326 18.7185V19.0185ZM7.54663 19.0191C7.70876 19.0188 7.87088 19.0185 8.03326 19.0185V18.7185C7.87058 18.7185 7.7082 18.7188 7.54612 18.7191L7.54663 19.0191ZM2.69354 5.04041C2.30156 5.04041 1.94855 5.33946 1.87699 5.71888L2.17179 5.77448C2.21699 5.53483 2.4478 5.34041 2.69354 5.34041V5.04041ZM3.54496 5.62616C3.4184 5.25789 3.06408 5.04041 2.69354 5.04041V5.34041C2.95172 5.34041 3.18122 5.49079 3.26125 5.72365L3.54496 5.62616ZM4.34528 7.91849C4.07881 7.15299 3.81242 6.38772 3.54463 5.6252L3.26158 5.72461C3.52921 6.48667 3.79546 7.25155 4.06196 8.01711L4.34528 7.91849ZM4.98178 9.74358C4.76901 9.13577 4.55712 8.52705 4.34528 7.91849L4.06196 8.01711C4.27378 8.62564 4.48576 9.2346 4.69863 9.84269L4.98178 9.74358ZM4.75841 10.1274C4.78643 10.1207 4.82053 10.1121 4.8519 10.0995C4.88338 10.0869 4.92562 10.0651 4.95904 10.0238C5.03451 9.93053 5.00819 9.81792 4.98155 9.74293L4.69886 9.84335C4.70345 9.85629 4.70602 9.86558 4.70739 9.87189C4.70877 9.87826 4.7086 9.88007 4.70859 9.87841C4.70858 9.87651 4.70879 9.87025 4.71158 9.86144C4.71451 9.85219 4.71939 9.84302 4.72585 9.83503C4.73204 9.82739 4.73788 9.82304 4.74075 9.82117C4.74337 9.81946 4.74375 9.81965 4.74009 9.82112C4.73645 9.82258 4.73063 9.8246 4.72154 9.8272C4.71248 9.82978 4.70177 9.8325 4.68847 9.83568L4.75841 10.1274ZM4.35675 10.1462C4.42695 10.1848 4.50091 10.1807 4.5565 10.1726C4.61267 10.1644 4.6826 10.1464 4.75978 10.1271L4.68709 9.83602C4.60176 9.85733 4.55058 9.87026 4.51323 9.8757C4.47529 9.88123 4.4833 9.87341 4.50131 9.88332L4.35675 10.1462ZM4.1588 9.79963C4.18327 9.87401 4.20514 9.94175 4.22823 9.99314C4.25113 10.0441 4.28718 10.1079 4.35675 10.1462L4.50131 9.88332C4.51923 9.89317 4.51709 9.90407 4.50189 9.87022C4.48686 9.83677 4.47069 9.7877 4.44378 9.70589L4.1588 9.79963ZM3.93043 9.09023C4.00631 9.32614 4.08227 9.56232 4.15853 9.7988L4.44405 9.70673C4.36784 9.47037 4.29191 9.2343 4.21602 8.99837L3.93043 9.09023ZM3.25612 7.00927C3.48395 7.70207 3.7068 8.39495 3.93043 9.09023L4.21602 8.99837C3.99245 8.30324 3.76929 7.60944 3.54111 6.91555L3.25612 7.00927ZM2.1324 6.06101C2.42375 6.10467 2.65825 6.20718 2.84148 6.36201C3.02472 6.51686 3.16454 6.73068 3.25611 7.00925L3.54111 6.91557C3.43508 6.59301 3.26728 6.32906 3.03511 6.13287C2.80292 5.93667 2.51423 5.81488 2.17685 5.76432L2.1324 6.06101ZM1.87709 5.71833C1.86464 5.78302 1.85453 5.88249 1.92254 5.96329C1.98339 6.03557 2.0763 6.05239 2.13184 6.06093L2.17741 5.76441C2.16533 5.76255 2.15586 5.76076 2.14841 5.75903C2.1409 5.75729 2.13659 5.75589 2.13453 5.75512C2.1301 5.75346 2.14055 5.75642 2.15205 5.77008C2.15778 5.77689 2.16198 5.78427 2.16469 5.79123C2.16728 5.79788 2.16791 5.80256 2.16804 5.80383C2.16816 5.80495 2.16789 5.80339 2.16829 5.79821C2.16869 5.79306 2.16966 5.78554 2.17168 5.77504L1.87709 5.71833Z" fill="#4BBD60"/>
<path fill-rule="evenodd" clip-rule="evenodd" d="M14.3083 0.33048C14.2169 0.326422 14.1243 0.322307 14.0466 0.260254C13.867 0.260254 13.6873 0.260254 13.5077 0.26474C13.3896 0.325091 13.2614 0.343505 13.1325 0.362039C13.0505 0.373814 12.9682 0.385638 12.8879 0.408295C12.3221 0.569794 11.8101 0.834473 11.379 1.23822C11.3071 1.31 11.2577 1.34589 11.1634 1.25617C10.5661 0.695405 9.85657 0.385864 9.04371 0.305115C9.02502 0.305115 9.0085 0.292174 8.99264 0.279752C8.98562 0.274259 8.97874 0.268867 8.97185 0.26474H8.43294C8.40366 0.313487 8.36024 0.312796 8.31804 0.312123C8.30199 0.311867 8.28612 0.311614 8.27127 0.314087C6.82968 0.55185 5.80125 1.33243 5.32971 2.72312C4.85816 4.11381 5.16354 5.3744 6.19196 6.41966C7.26959 7.51462 8.35995 8.59899 9.44991 9.68296C9.94523 10.1756 10.4405 10.6681 10.9344 11.1615C11.1769 11.4037 11.3431 11.4037 11.5856 11.1615C12.0776 10.67 12.5704 10.1794 13.0632 9.68885C14.1717 8.58531 15.2799 7.48211 16.3774 6.37031C17.1364 5.5987 17.4642 4.65214 17.3744 3.57099C17.2352 1.93805 16.0361 0.628113 14.4283 0.341004C14.3896 0.334086 14.3491 0.332289 14.3083 0.33048ZM16.6513 3.74567C16.6491 3.79053 16.6469 3.83553 16.6469 3.88053C16.6738 4.67905 16.3774 5.35197 15.8205 5.91273C14.9866 6.75093 14.1496 7.5862 13.3123 8.42189C12.6842 9.04876 12.0559 9.67586 11.4284 10.3046C11.3161 10.4168 11.2488 10.4571 11.114 10.3181C10.3775 9.57562 9.63652 8.83654 8.89552 8.09746C8.15451 7.35838 7.4135 6.61929 6.67699 5.87684C5.54976 4.74186 5.59916 2.8577 6.76231 1.77655C7.88954 0.731293 9.64998 0.749238 10.7548 1.84833C11.2083 2.29694 11.3071 2.30142 11.7787 1.84833C12.6095 1.04532 13.611 0.798585 14.7158 1.16196C15.8115 1.52533 16.4358 2.32834 16.6424 3.45435C16.6609 3.54983 16.6561 3.64742 16.6513 3.74567Z" fill="#4BBD60"/>
<path d="M14.0466 0.260254L14.1403 0.143074L14.0992 0.110254H14.0466V0.260254ZM14.3083 0.33048L14.3017 0.480332L14.3083 0.33048ZM13.5077 0.26474L13.504 0.114787L13.4698 0.115639L13.4394 0.131173L13.5077 0.26474ZM13.1325 0.362039L13.1111 0.213564V0.213564L13.1325 0.362039ZM12.8879 0.408295L12.8472 0.263936L12.8468 0.264055L12.8879 0.408295ZM11.379 1.23822L11.2764 1.12868L11.273 1.1321L11.379 1.23822ZM11.1634 1.25617L11.2668 1.14749L11.2661 1.14681L11.1634 1.25617ZM9.04371 0.305115L9.05854 0.15585L9.05114 0.155115H9.04371V0.305115ZM8.99264 0.279752L8.90015 0.397847L8.90015 0.397848L8.99264 0.279752ZM8.97185 0.26474L9.04897 0.136079L9.01336 0.11474H8.97185V0.26474ZM8.43294 0.26474V0.11474H8.34806L8.30435 0.187505L8.43294 0.26474ZM8.31804 0.312123L8.32043 0.162142L8.31804 0.312123ZM8.27127 0.314087L8.29568 0.462088L8.2959 0.46205L8.27127 0.314087ZM6.19196 6.41966L6.08504 6.52486L6.08506 6.52487L6.19196 6.41966ZM9.44991 9.68296L9.34414 9.78932L9.44991 9.68296ZM10.9344 11.1615L10.8284 11.2676H10.8284L10.9344 11.1615ZM11.5856 11.1615L11.6916 11.2676H11.6916L11.5856 11.1615ZM13.0632 9.68885L12.9574 9.58254L13.0632 9.68885ZM16.3774 6.37031L16.4842 6.47568L16.4843 6.4755L16.3774 6.37031ZM17.3744 3.57099L17.5239 3.55857L17.5238 3.55825L17.3744 3.57099ZM14.4283 0.341004L14.4547 0.19334L14.4547 0.193334L14.4283 0.341004ZM16.6469 3.88053H16.4968L16.4969 3.88559L16.6469 3.88053ZM16.6513 3.74567L16.5014 3.73832V3.73833L16.6513 3.74567ZM15.8205 5.91273L15.9269 6.01853L15.927 6.01842L15.8205 5.91273ZM13.3123 8.42189L13.4183 8.52806L13.3123 8.42189ZM11.4284 10.3046L11.5344 10.4107L11.5346 10.4106L11.4284 10.3046ZM11.114 10.3181L11.2218 10.2137L11.2205 10.2124L11.114 10.3181ZM8.89552 8.09746L8.78959 8.20367L8.89552 8.09746ZM6.67699 5.87684L6.78348 5.7712L6.78342 5.77114L6.67699 5.87684ZM6.76231 1.77655L6.66032 1.66656L6.66019 1.66668L6.76231 1.77655ZM10.7548 1.84833L10.649 1.95467L10.6493 1.95498L10.7548 1.84833ZM11.7787 1.84833L11.8826 1.95649L11.8829 1.95619L11.7787 1.84833ZM14.7158 1.16196L14.763 1.01958L14.7626 1.01947L14.7158 1.16196ZM16.6424 3.45435L16.4948 3.48142L16.4951 3.48288L16.6424 3.45435ZM13.953 0.377434C14.0745 0.474582 14.218 0.476616 14.3017 0.480332L14.315 0.180627C14.2159 0.176228 14.174 0.170031 14.1403 0.143074L13.953 0.377434ZM13.5114 0.414693C13.6889 0.410262 13.8667 0.410254 14.0466 0.410254V0.110254C13.8673 0.110254 13.6858 0.110246 13.504 0.114787L13.5114 0.414693ZM13.1538 0.510514C13.2788 0.492559 13.432 0.471857 13.576 0.398307L13.4394 0.131173C13.3472 0.178325 13.2441 0.194451 13.1111 0.213564L13.1538 0.510514ZM12.9287 0.552653C12.9978 0.533146 13.0702 0.522524 13.1538 0.510514L13.1111 0.213564C13.0308 0.225105 12.9386 0.238129 12.8472 0.263937L12.9287 0.552653ZM11.4815 1.34771C11.8925 0.962812 12.3823 0.708601 12.9291 0.552535L12.8468 0.264055C12.2619 0.430987 11.7277 0.706135 11.2765 1.12874L11.4815 1.34771ZM11.06 1.36484C11.1201 1.42195 11.2043 1.47613 11.3095 1.45475C11.3556 1.44539 11.3918 1.42363 11.4178 1.40428C11.4434 1.38522 11.4665 1.3628 11.485 1.34434L11.273 1.1321C11.2647 1.14039 11.2579 1.147 11.2519 1.15248C11.2459 1.15796 11.2416 1.16142 11.2387 1.16357C11.2323 1.16833 11.2368 1.16339 11.2498 1.16076C11.2566 1.15937 11.2641 1.15899 11.2714 1.15984C11.2786 1.16067 11.2835 1.16242 11.2858 1.16339C11.2878 1.16426 11.2872 1.16427 11.2836 1.16178C11.2801 1.15928 11.2746 1.15485 11.2668 1.14749L11.06 1.36484ZM9.02888 0.45438C9.81041 0.532018 10.4887 0.828418 11.0608 1.36552L11.2661 1.14681C10.6436 0.562391 9.90272 0.239711 9.05854 0.15585L9.02888 0.45438ZM8.90015 0.397848C8.90626 0.402633 8.92324 0.416307 8.94316 0.427595C8.96428 0.439561 8.99906 0.455115 9.04371 0.455115V0.155115C9.06967 0.155115 9.08685 0.164199 9.09107 0.166588C9.09343 0.167928 9.09425 0.168624 9.09289 0.167628C9.09135 0.166511 9.08945 0.165047 9.08512 0.161656L8.90015 0.397848ZM8.89474 0.393401C8.89263 0.392136 8.89189 0.391511 8.89317 0.392459C8.89458 0.393495 8.89632 0.394847 8.90015 0.397847L9.08512 0.161657C9.07985 0.157527 9.06538 0.145915 9.04897 0.136079L8.89474 0.393401ZM8.43294 0.41474H8.97185V0.11474H8.43294V0.41474ZM8.31565 0.462104C8.33214 0.462367 8.37719 0.46428 8.42277 0.450837C8.47768 0.434643 8.52704 0.399396 8.56153 0.341975L8.30435 0.187505C8.30576 0.185167 8.30976 0.179541 8.31733 0.173741C8.32493 0.167918 8.33251 0.164681 8.3379 0.163091C8.34259 0.161709 8.3445 0.161908 8.34106 0.162106C8.33703 0.162338 8.33195 0.162326 8.32043 0.162142L8.31565 0.462104ZM8.2959 0.46205C8.29425 0.462325 8.29457 0.462128 8.2983 0.462026C8.30233 0.461916 8.30704 0.461967 8.31565 0.462104L8.32043 0.162142C8.30728 0.161933 8.27733 0.161013 8.24663 0.166124L8.2959 0.46205ZM5.47176 2.77129C5.92356 1.43883 6.90241 0.69188 8.29568 0.462088L8.24686 0.166086C6.75695 0.411819 5.67894 1.22602 5.18765 2.67495L5.47176 2.77129ZM6.29889 6.31445C5.30918 5.30855 5.01887 4.10696 5.47176 2.77129L5.18765 2.67495C4.69745 4.12065 5.0179 5.44025 6.08504 6.52486L6.29889 6.31445ZM9.55569 9.5766C8.46563 8.49254 7.37584 7.40874 6.29887 6.31444L6.08506 6.52487C7.16334 7.62051 8.25427 8.70544 9.34414 9.78932L9.55569 9.5766ZM11.0404 11.0553C10.5463 10.5618 10.051 10.0692 9.55569 9.5766L9.34414 9.78932C9.83948 10.2819 10.3346 10.7743 10.8284 11.2676L11.0404 11.0553ZM11.4796 11.0553C11.3649 11.1699 11.2998 11.1931 11.26 11.1931C11.2202 11.1931 11.1551 11.1699 11.0404 11.0553L10.8284 11.2676C10.9562 11.3953 11.0955 11.4931 11.26 11.4931C11.4245 11.4931 11.5638 11.3953 11.6916 11.2676L11.4796 11.0553ZM12.9574 9.58254C12.4646 10.0731 11.9717 10.5638 11.4796 11.0553L11.6916 11.2676C12.1835 10.7762 12.6762 10.2857 13.169 9.79515L12.9574 9.58254ZM16.2707 6.26493C15.1737 7.37619 14.066 8.47893 12.9574 9.58254L13.169 9.79515C14.2775 8.6917 15.3862 7.58803 16.4842 6.47568L16.2707 6.26493ZM17.2249 3.58341C17.3112 4.62262 16.9977 5.52577 16.2705 6.26512L16.4843 6.4755C17.275 5.67163 17.6172 4.68166 17.5239 3.55857L17.2249 3.58341ZM14.402 0.488668C15.943 0.76386 17.0915 2.01854 17.2249 3.58373L17.5238 3.55825C17.3789 1.85756 16.1292 0.492367 14.4547 0.19334L14.402 0.488668ZM14.3017 0.480332C14.3443 0.482225 14.3747 0.483802 14.402 0.488673L14.4547 0.193334C14.4044 0.18437 14.3538 0.182352 14.315 0.180627L14.3017 0.480332ZM16.7969 3.88053C16.7969 3.83982 16.7989 3.79849 16.8011 3.75302L16.5014 3.73833C16.4993 3.78257 16.4969 3.83124 16.4969 3.88053H16.7969ZM15.927 6.01842C16.51 5.43137 16.8253 4.71944 16.7968 3.87547L16.4969 3.88559C16.5224 4.63867 16.2449 5.27256 15.7141 5.80703L15.927 6.01842ZM13.4183 8.52806C14.2556 7.6924 15.0927 6.85694 15.9269 6.01852L15.7142 5.80693C14.8804 6.64491 14.0437 7.48 13.2064 8.31572L13.4183 8.52806ZM11.5346 10.4106C12.1619 9.78194 12.7902 9.15494 13.4183 8.52806L13.2064 8.31572C12.5783 8.94257 11.9498 9.56978 11.3222 10.1986L11.5346 10.4106ZM11.0063 10.4224C11.0806 10.4992 11.1774 10.5715 11.3006 10.5541C11.3572 10.5461 11.4032 10.5207 11.4383 10.4954C11.473 10.4705 11.5055 10.4396 11.5344 10.4107L11.3224 10.1985C11.2952 10.2256 11.2771 10.2419 11.2634 10.2517C11.2501 10.2613 11.2498 10.2583 11.2587 10.257C11.2706 10.2553 11.2774 10.2594 11.2733 10.2573C11.2663 10.2537 11.2498 10.2426 11.2218 10.2137L11.0063 10.4224ZM8.78959 8.20367C9.53064 8.94279 10.2714 9.68159 11.0075 10.4237L11.2205 10.2124C10.4837 9.46965 9.7424 8.73029 9.00144 7.99126L8.78959 8.20367ZM6.5705 5.98248C7.30734 6.72526 8.04863 7.46463 8.78959 8.20367L9.00144 7.99126C8.26039 7.25212 7.51967 6.51332 6.78348 5.7712L6.5705 5.98248ZM6.66019 1.66668C5.43547 2.80506 5.38307 4.78688 6.57056 5.98254L6.78342 5.77114C5.71645 4.69683 5.76285 2.91034 6.86444 1.88642L6.66019 1.66668ZM10.8605 1.74199C9.69833 0.585743 7.84617 0.566946 6.66032 1.66656L6.86431 1.88654C7.93291 0.895641 9.60164 0.912732 10.649 1.95467L10.8605 1.74199ZM11.6748 1.74017C11.557 1.85334 11.4703 1.93009 11.3991 1.97858C11.3289 2.02642 11.2881 2.03658 11.2606 2.03647C11.2334 2.03636 11.1937 2.02609 11.1259 1.97852C11.057 1.93012 10.9737 1.8539 10.8602 1.74168L10.6493 1.95498C10.7626 2.06706 10.8618 2.15963 10.9536 2.22409C11.0467 2.28937 11.1463 2.33602 11.2594 2.33647C11.3722 2.33692 11.4729 2.29128 11.568 2.22655C11.6621 2.16247 11.7646 2.06986 11.8826 1.95649L11.6748 1.74017ZM14.7626 1.01947C13.6033 0.638165 12.5441 0.899962 11.6744 1.74047L11.8829 1.95619C12.675 1.19068 13.6186 0.959004 14.6689 1.30445L14.7626 1.01947ZM16.7899 3.42728C16.5746 2.25366 15.9165 1.40211 14.763 1.01958L14.6685 1.30433C15.7066 1.64855 16.297 2.40302 16.4948 3.48142L16.7899 3.42728ZM16.8011 3.75302C16.8057 3.658 16.8122 3.54208 16.7896 3.42582L16.4951 3.48288C16.5096 3.55757 16.5064 3.63684 16.5014 3.73832L16.8011 3.75302Z" fill="#4BBD60"/>
<path fill-rule="evenodd" clip-rule="evenodd" d="M13.0641 5.40513V5.40517V5.40519C13.0651 5.51135 13.0661 5.61686 13.0631 5.72435C13.0586 5.90828 12.9688 6.00249 12.7847 6.00249C12.5826 6.00697 12.376 6.01146 12.1739 6.00249C12.0571 5.998 12.0302 6.04286 12.0302 6.15053C12.0392 6.34791 12.0347 6.5453 12.0302 6.74268V6.74269C12.0257 6.93559 11.9359 7.0298 11.7428 7.0298C11.4149 7.03429 11.0916 7.03429 10.7637 7.0298C10.5841 7.0298 10.4898 6.93111 10.4898 6.74718C10.4853 6.54082 10.4853 6.32997 10.4898 6.12361C10.4898 6.03389 10.4629 6.00249 10.373 6.00249C10.1709 6.00697 9.96436 6.00697 9.76227 6.00249C9.56018 6.00249 9.46587 5.91276 9.46138 5.71538C9.45689 5.39686 9.45689 5.07387 9.46138 4.75535C9.46138 4.56245 9.55569 4.47273 9.7488 4.46824C9.9464 4.46376 10.144 4.45927 10.3416 4.46824C10.4673 4.47273 10.4988 4.42787 10.4898 4.31123C10.4808 4.11833 10.4853 3.92543 10.4898 3.73252C10.4898 3.53065 10.5841 3.43644 10.7817 3.43644C10.8878 3.43644 10.9944 3.43595 11.1012 3.43545C11.3153 3.43445 11.53 3.43345 11.7428 3.43644C11.9314 3.43644 12.0257 3.53065 12.0257 3.72355C12.0302 3.92543 12.0302 4.13179 12.0257 4.33366C12.0212 4.42787 12.0526 4.46824 12.1514 4.46376C12.3535 4.45927 12.5556 4.45927 12.7622 4.46376C12.9643 4.46376 13.0541 4.55797 13.0541 4.75984C13.0631 4.92582 13.0631 5.08732 13.0631 5.24432V5.24434C13.0631 5.29833 13.0636 5.35181 13.0641 5.40513ZM11.5271 4.28602V4.28602C11.5319 4.20786 11.5368 4.12957 11.5182 4.05552C11.506 4.00575 11.4874 3.97553 11.4644 3.95814C11.4854 3.97576 11.5024 4.0049 11.5137 4.05104C11.533 4.1313 11.5293 4.21386 11.5256 4.29543C11.5242 4.32784 11.5227 4.36009 11.5227 4.39198C11.5227 4.35696 11.5249 4.3215 11.5271 4.28602ZM11.5227 4.62225V4.69703C11.5256 4.81814 11.5656 4.90033 11.6451 4.94359C11.5686 4.89989 11.53 4.82033 11.5272 4.70152C11.525 4.67461 11.5236 4.64825 11.5227 4.62225ZM12.5273 5.00521C12.5453 5.02139 12.5533 5.04849 12.5556 5.09181C12.5646 5.29666 12.5691 5.39872 12.5203 5.44956C12.4718 5.50004 12.3708 5.50004 12.1694 5.50004C12.1287 5.50004 12.0884 5.49954 12.0485 5.49903H12.0485H12.0485C11.9696 5.49804 11.8921 5.49707 11.8146 5.50004C11.626 5.50453 11.5317 5.59874 11.5272 5.78715C11.5227 5.99351 11.5227 6.20436 11.5272 6.41072C11.5272 6.50493 11.4958 6.52736 11.406 6.52736L11.3928 6.52766C11.2031 6.53199 11.1076 6.53417 11.0595 6.4875C11.0584 6.48643 11.0573 6.48533 11.0563 6.48421C11.1059 6.53069 11.2047 6.52734 11.4015 6.52287C11.4913 6.51839 11.5272 6.50044 11.5227 6.40623C11.5182 6.19987 11.5182 5.98903 11.5227 5.78267C11.5227 5.59425 11.6215 5.50004 11.8101 5.49556H12.1649C12.3663 5.49556 12.4673 5.49556 12.5158 5.44508C12.5646 5.39423 12.5602 5.29217 12.5511 5.08732C12.5491 5.04778 12.5421 5.02175 12.5273 5.00521ZM10.9583 5.60043C10.9126 5.53354 10.8343 5.49826 10.7233 5.49556C10.5167 5.49107 10.3057 5.49107 10.0991 5.49556C10.0549 5.49556 10.026 5.49013 10.0074 5.47342C10.0257 5.49366 10.0557 5.50004 10.1036 5.50004C10.3102 5.49556 10.5212 5.49556 10.7278 5.50004C10.8336 5.50269 10.9114 5.53645 10.9583 5.60043Z" fill="#4BBD60"/>
</svg>
