<svg width="47" height="47" viewBox="0 0 47 47" fill="none" xmlns="http://www.w3.org/2000/svg">
<circle cx="23.5" cy="23.5" r="19.5" fill="#4bbd60" stroke="#F3F9FF" stroke-width="8"/>
<path fill-rule="evenodd" clip-rule="evenodd" d="M30.9392 18.381C30.9754 18.9 30.6266 19.247 30.2846 19.594C29.236 20.6574 28.2064 21.7418 27.1246 22.7691C26.5853 23.2817 26.4536 23.6159 27.0872 24.2003C28.2416 25.2651 29.2902 26.4482 30.4022 27.5621C31.0361 28.1969 31.2622 28.8973 30.6006 29.5847C29.9267 30.2851 29.2163 30.0156 28.6055 29.3979C26.8464 27.618 25.1017 25.8229 23.3294 24.0567C22.9373 23.666 22.8595 23.4059 23.2923 22.9759C25.0959 21.1842 26.8642 19.3555 28.6568 17.5518C29.1026 17.1032 29.6045 16.8003 30.2675 17.1567C30.7492 17.4156 30.9588 17.8077 30.9392 18.381Z" fill="white"/>
<path fill-rule="evenodd" clip-rule="evenodd" d="M22.961 18.3046C22.9926 18.856 22.6517 19.2103 22.3084 19.5599C21.2292 20.6593 20.1777 21.7896 19.0535 22.8396C18.4809 23.3746 18.5553 23.695 19.0801 24.1936C20.1958 25.2532 21.2449 26.3852 22.3381 27.4701C22.997 28.1239 23.3057 28.8525 22.5886 29.5942C21.9052 30.3012 21.1948 29.9909 20.5865 29.3762C18.847 27.6189 17.1209 25.8473 15.3667 24.1054C14.9451 23.6869 14.8335 23.4045 15.3186 22.927C17.1094 21.1648 18.8578 19.3576 20.629 17.5745C21.0784 17.122 21.5809 16.8078 22.2463 17.1353C22.7293 17.373 22.9793 17.7537 22.961 18.3046Z" fill="white"/>
</svg>
