<svg width="24" height="24" viewBox="0 0 24 24" fill="none" xmlns="http://www.w3.org/2000/svg">
<path fill-rule="evenodd" clip-rule="evenodd" d="M0 7.89937V22.566C0.0557508 22.692 0.103747 22.8335 0.152618 22.9777C0.191589 23.0926 0.231116 23.2091 0.275574 23.3208C0.601253 23.7987 1.1023 24 1.6785 24H3.50731H20.3173C20.9186 24 21.0188 23.9245 21.1942 23.3459C21.6451 21.9245 22.0898 20.5031 22.5344 19.0818C22.9791 17.6604 23.4238 16.239 23.8747 14.8176C23.8998 14.7421 23.9186 14.673 23.9374 14.6038C23.9562 14.5346 23.9749 14.4654 24 14.3899V13.912C23.9632 13.8306 23.9307 13.7492 23.8987 13.6691C23.8219 13.4768 23.748 13.2919 23.6242 13.1321C23.2985 12.7044 22.8225 12.5283 22.2714 12.5283H21.1441C21.1441 12.3606 21.1468 12.1929 21.1496 12.0252C21.1552 11.6897 21.1608 11.3543 21.1441 11.0189L21.1425 11.0012C21.1179 10.7293 21.0913 10.4349 20.9687 10.1887C20.6931 9.55975 20.142 9.28302 19.4656 9.25786H18.9896V8.95597V0.754717C18.9896 0.176101 18.8142 0 18.238 0H4.53445C3.95825 0 3.78288 0.150943 3.78288 0.754717V6.21384V6.51572H2.93111C2.81211 6.51572 2.69311 6.51415 2.57411 6.51258H2.5741C2.21711 6.50786 1.86012 6.50315 1.50313 6.54088C0.701461 6.5912 0.22547 7.04402 0.0250522 7.8239C0.0250522 7.84906 0.0250522 7.87421 0 7.89937ZM20.0919 22.566V22.8428H19.7912H1.82881C1.25261 22.8428 1.07724 22.6667 1.07724 22.0629V8.30189C1.07724 8.1761 1.1023 8 1.1524 7.87421C1.22756 7.6478 1.45303 7.57233 1.6785 7.57233H5.91232C6.31315 7.57233 6.51357 7.79874 6.51357 8.20126V9.50943C6.51357 10.1384 6.66388 10.2893 7.26514 10.2893H19.2902C19.3904 10.2893 19.5157 10.2893 19.6159 10.3145C19.8664 10.3648 20.0167 10.5157 20.0668 10.7673C20.0919 10.8428 20.0919 10.9434 20.0919 11.0189V22.566ZM7.61587 9.20755H17.9123V1.0566H4.91023V6.49057H5.88727C6.93946 6.51572 7.61587 7.19497 7.61587 8.25157V9.20755ZM21.1942 19.6981V13.5849H22.4969C22.8476 13.6101 23.048 13.9623 22.9228 14.3396C22.7975 14.7547 22.666 15.1698 22.5344 15.5849C22.4029 16 22.2714 16.4151 22.1461 16.8302C22.0084 17.283 21.8643 17.7296 21.7202 18.1761C21.5762 18.6226 21.4321 19.0692 21.2944 19.522C21.2885 19.5339 21.2825 19.5472 21.2763 19.5612C21.2561 19.6066 21.2324 19.6597 21.1942 19.6981Z" fill="#4BBD60"/>
<path d="M11.4236 4.30191C9.84534 4.30191 8.26705 4.30191 6.71382 4.30191C6.58856 4.30191 6.48835 4.30191 6.36309 4.27676C6.13762 4.20129 5.9873 3.97487 5.9873 3.77361C5.9873 3.5472 6.13762 3.34594 6.36309 3.27047C6.4633 3.24531 6.58856 3.22015 6.68877 3.22015C9.84534 3.22015 13.0019 3.22015 16.1585 3.22015C16.2587 3.22015 16.384 3.22015 16.4842 3.27047C16.7096 3.34594 16.8349 3.5472 16.8349 3.77361C16.8349 4.00003 16.7096 4.20129 16.4842 4.27676C16.384 4.30191 16.2587 4.32707 16.1334 4.32707C14.5552 4.30191 12.9769 4.30191 11.4236 4.30191Z" fill="#4BBD60"/>
<path d="M14.6804 5.96229C15.1814 5.96229 15.7075 5.96229 16.2086 5.96229C16.6094 5.96229 16.8349 6.18871 16.8349 6.51575C16.8349 6.84279 16.5843 7.04405 16.2336 7.04405C15.2065 7.04405 14.1793 7.04405 13.1522 7.04405C12.7764 7.04405 12.5259 6.81764 12.5259 6.49059C12.5259 6.16355 12.7764 5.96229 13.1772 5.96229C13.6532 5.93713 14.1793 5.96229 14.6804 5.96229Z" fill="#4BBD60"/>
<path d="M9.77033 5.96229C10.096 5.96229 10.4467 5.96229 10.7724 5.96229C11.1482 5.96229 11.3737 6.18871 11.3987 6.49059C11.3987 6.79248 11.1482 7.04405 10.7975 7.04405C10.1211 7.04405 9.44465 7.04405 8.76824 7.04405C8.39246 7.04405 8.16699 6.81764 8.16699 6.49059C8.16699 6.16355 8.41751 5.96229 8.7933 5.96229C9.11898 5.93713 9.44465 5.96229 9.77033 5.96229Z" fill="#4BBD60"/>
</svg>
