<svg width="110" height="112" viewBox="0 0 110 112" fill="none" xmlns="http://www.w3.org/2000/svg">
<path opacity="0.01" d="M110 112L0 112L0 0L86 0C99.2548 0 110 10.7452 110 24L110 112Z" fill="#D8D8D8"/>
<mask id="mask0_423_850" style="mask-type:alpha" maskUnits="userSpaceOnUse" x="0" y="0" width="110" height="112">
<path d="M110 112L0 112L0 0L86 0C99.2548 0 110 10.7452 110 24L110 112Z" fill="white"/>
</mask>
<g mask="url(#mask0_423_850)">
<path fill-rule="evenodd" clip-rule="evenodd" d="M92.7855 61.7598C97.7561 61.7598 101.785 57.7303 101.785 52.7598V32.1832H122C126.971 32.1832 131 28.1538 131 23.1832V6.57658C131 1.60602 126.971 -2.42342 122 -2.42342H101.785L101.785 -23C101.785 -27.9706 97.7561 -32 92.7855 -32H76.6025C71.632 -32 67.6025 -27.9706 67.6025 -23V-2.42342H47.388C42.4174 -2.42342 38.388 1.60602 38.388 6.57658V23.1832C38.388 28.1538 42.4174 32.1832 47.388 32.1832L67.6025 32.1832V52.7598C67.6025 57.7303 71.632 61.7598 76.6025 61.7598H92.7855Z" fill="#F3F9FF"/>
<path fill-rule="evenodd" clip-rule="evenodd" d="M33.1893 78.6606C35.9508 78.6606 38.1893 76.4221 38.1893 73.6606V62.3633H48.4922C51.2536 62.3633 53.4922 60.1248 53.4922 57.3633L53.4922 49.2552C53.4922 46.4938 51.2536 44.2552 48.4922 44.2552H38.1893L38.1893 33.7627C38.1893 31.0013 35.9508 28.7627 33.1893 28.7627H25.3029C22.5415 28.7627 20.3029 31.0013 20.3029 33.7627V44.2552H10.0001C7.23865 44.2552 5.00007 46.4938 5.00007 49.2552L5.00007 57.3633C5.00007 60.1248 7.23866 62.3633 10.0001 62.3633H20.3029V73.6606C20.3029 76.4221 22.5415 78.6606 25.3029 78.6606H33.1893Z" fill="#F3F9FF"/>
<path fill-rule="evenodd" clip-rule="evenodd" d="M70.3658 102C72.0227 102 73.3658 100.657 73.3658 99V91.9399H79.9053C81.5621 91.9399 82.9053 90.5968 82.9053 88.9399V83.6727C82.9053 82.0158 81.5621 80.6727 79.9053 80.6727H73.3658V74.015C73.3658 72.3582 72.0227 71.015 70.3658 71.015H65.2365C63.5796 71.015 62.2365 72.3582 62.2365 74.015V80.6727H55.6971C54.0402 80.6727 52.6971 82.0158 52.6971 83.6727V88.9399C52.6971 90.5968 54.0402 91.9399 55.6971 91.9399H62.2365V99C62.2365 100.657 63.5797 102 65.2365 102H70.3658Z" fill="#F3F9FF"/>
</g>
</svg>
