<svg width="110" height="112" viewBox="0 0 110 112" fill="none" xmlns="http://www.w3.org/2000/svg">
<path opacity="0.01" d="M0 0H110V112H24C10.7452 112 0 101.255 0 88V0Z" fill="#D8D8D8"/>
<mask id="mask0_423_863" style="mask-type:alpha" maskUnits="userSpaceOnUse" x="0" y="0" width="110" height="112">
<path d="M0 0H110V112H24C10.7452 112 0 101.255 0 88V0Z" fill="white"/>
</mask>
<g mask="url(#mask0_423_863)">
<path fill-rule="evenodd" clip-rule="evenodd" d="M17.2145 50.2402C12.2439 50.2402 8.21451 54.2697 8.21451 59.2402V79.8168H-12C-16.9706 79.8168 -21 83.8462 -21 88.8168V105.423C-21 110.394 -16.9706 114.423 -12 114.423H8.21451V135C8.21451 139.971 12.2439 144 17.2145 144H33.3975C38.368 144 42.3975 139.971 42.3975 135V114.423H62.612C67.5826 114.423 71.612 110.394 71.612 105.423V88.8168C71.612 83.8462 67.5826 79.8168 62.612 79.8168H42.3975V59.2402C42.3975 54.2697 38.368 50.2402 33.3975 50.2402H17.2145Z" fill="#F3F9FF"/>
<path fill-rule="evenodd" clip-rule="evenodd" d="M76.8107 33.3394C74.0492 33.3394 71.8107 35.5779 71.8107 38.3394V49.6367H61.5078C58.7464 49.6367 56.5078 51.8752 56.5078 54.6367V62.7448C56.5078 65.5062 58.7464 67.7448 61.5078 67.7448H71.8107V78.2373C71.8107 80.9987 74.0492 83.2373 76.8107 83.2373H84.6971C87.4585 83.2373 89.6971 80.9987 89.6971 78.2373V67.7448H99.9999C102.761 67.7448 105 65.5062 105 62.7448V54.6367C105 51.8752 102.761 49.6367 99.9999 49.6367H89.6971V38.3394C89.6971 35.5779 87.4585 33.3394 84.6971 33.3394H76.8107Z" fill="#F3F9FF"/>
<path fill-rule="evenodd" clip-rule="evenodd" d="M39.6342 10C37.9773 10 36.6342 11.3431 36.6342 13V20.0601H30.0947C28.4379 20.0601 27.0947 21.4032 27.0947 23.0601V28.3273C27.0947 29.9842 28.4379 31.3273 30.0947 31.3273H36.6342V37.985C36.6342 39.6418 37.9773 40.985 39.6342 40.985H44.7635C46.4204 40.985 47.7635 39.6418 47.7635 37.985V31.3273H54.3029C55.9598 31.3273 57.3029 29.9842 57.3029 28.3273V23.0601C57.3029 21.4032 55.9598 20.0601 54.3029 20.0601H47.7635V13C47.7635 11.3431 46.4203 10 44.7635 10H39.6342Z" fill="#F3F9FF"/>
</g>
</svg>
