<svg width="18" height="18" viewBox="0 0 18 18" fill="none" xmlns="http://www.w3.org/2000/svg">
<path d="M18 10.5947C18 12.4187 18 14.2427 18 16.0777C18 17.2464 17.2461 18 16.0662 18C12.6683 18 9.28135 18 5.88348 18C4.68166 18 3.93872 17.2682 3.92779 16.0777C3.92779 15.9466 3.88409 15.9029 3.75298 15.8592C1.42582 15.2148 -0.103762 13.1068 0.00549438 10.693C0.103825 8.53034 1.62249 6.6517 3.74206 6.07282C3.89502 6.02913 3.92779 5.97451 3.92779 5.8216C3.92779 4.51092 3.92779 3.20024 3.92779 1.90049C3.92779 0.764563 4.69259 0 5.82885 0C8.19971 0 10.5706 0 12.9414 0C13.5096 0 13.9794 0.18568 14.3727 0.589806C15.3778 1.60558 16.3939 2.62136 17.41 3.62621C17.8143 4.03034 18 4.5 18 5.07888C18 6.91383 18 8.74879 18 10.5947ZM4.93295 16.034C4.8674 16.6129 5.21702 17.0061 5.79608 17.0061C9.22672 17.0061 12.6464 17.0061 16.0771 17.0061C16.6998 17.0061 17.0167 16.6893 17.0167 16.0667C17.0167 12.6371 17.0167 9.20752 17.0167 5.78884C17.0167 5.71238 17.0167 5.64684 17.0167 5.55947C16.0989 5.55947 15.203 5.55947 14.3181 5.55947C13.2146 5.55947 12.4389 4.78398 12.4389 3.68083C12.4389 2.86165 12.4389 2.03155 12.4389 1.21238C12.4389 1.13592 12.4389 1.07039 12.4389 0.993933C12.3733 0.993933 12.3405 0.98301 12.3077 0.98301C10.1226 0.98301 7.9375 0.98301 5.74145 0.98301C5.24979 0.98301 4.9111 1.33252 4.9111 1.82403C4.9111 3.13471 4.9111 4.44539 4.9111 5.74515C4.9111 5.78884 4.92203 5.83252 4.93295 5.87621C7.76269 5.83252 9.98059 7.9733 10.1445 10.6602C10.221 11.949 9.84948 13.1177 9.04099 14.1226C7.9812 15.4223 6.59365 16.034 4.93295 16.034ZM5.08591 6.87015C2.82431 6.87015 0.977875 8.7051 0.988801 10.9333C0.988801 13.216 2.81338 15.04 5.08591 15.04C7.33659 15.04 9.17209 13.1942 9.16117 10.9333C9.16117 8.7051 7.32566 6.87015 5.08591 6.87015ZM13.4222 1.15777C13.4222 1.16869 13.4222 1.23422 13.4222 1.28884C13.4222 2.09709 13.4222 2.89442 13.4222 3.70267C13.4222 4.23786 13.7609 4.57646 14.2962 4.58738C15.1047 4.58738 15.9132 4.58738 16.7217 4.58738C16.7763 4.58738 16.82 4.58738 16.831 4.58738C15.7056 3.45146 14.5584 2.29369 13.4222 1.15777Z" fill="black"/>
<path d="M13.2473 8.18028C12.7338 8.18028 12.2094 8.18028 11.6959 8.18028C11.3572 8.18028 11.1387 7.98367 11.1277 7.69969C11.1277 7.40479 11.3463 7.19727 11.6959 7.19727C12.7338 7.19727 13.7608 7.19727 14.7988 7.19727C15.1484 7.19727 15.3778 7.39387 15.3778 7.68877C15.3778 7.98367 15.1484 8.18028 14.7988 8.18028C14.2853 8.18028 13.7718 8.18028 13.2473 8.18028Z" fill="black"/>
<path d="M13.2583 12.4297C13.7827 12.4297 14.3072 12.4297 14.8316 12.4297C15.1703 12.4297 15.3888 12.6372 15.3888 12.9212C15.3888 13.2161 15.1594 13.4018 14.8316 13.4127C13.7937 13.4127 12.7448 13.4127 11.7069 13.4127C11.3682 13.4127 11.1497 13.2161 11.1387 12.9321C11.1387 12.6372 11.3572 12.4406 11.7069 12.4406C12.2204 12.4297 12.7339 12.4297 13.2583 12.4297Z" fill="black"/>
<path d="M13.586 9.81934C13.9902 9.81934 14.4054 9.81934 14.8097 9.81934C15.1593 9.81934 15.3887 10.0159 15.3778 10.3108C15.3778 10.6057 15.1484 10.7914 14.8097 10.7914C13.9902 10.7914 13.1599 10.7914 12.3405 10.7914C12.0018 10.7914 11.7833 10.5948 11.7723 10.3108C11.7723 10.0159 11.9908 9.81934 12.3405 9.81934C12.7666 9.81934 13.1708 9.81934 13.586 9.81934Z" fill="black"/>
<path d="M9.32512 4.58786C9.64196 4.58786 9.94788 4.58786 10.2647 4.58786C10.5816 4.58786 10.8001 4.79545 10.8001 5.07952C10.8001 5.35266 10.5816 5.56024 10.2756 5.56024C9.64196 5.56024 9.00828 5.56024 8.37459 5.56024C8.06867 5.56024 7.85016 5.35266 7.85016 5.07952C7.85016 4.79545 8.06867 4.58786 8.38552 4.58786C8.70236 4.57694 9.0192 4.58786 9.32512 4.58786Z" fill="black"/>
<path d="M5.58797 9.98323C5.58797 10.2891 5.58797 10.5949 5.58797 10.9007C5.58797 11.0864 5.52243 11.2393 5.38044 11.3704C5.06369 11.6653 4.74694 11.9711 4.4302 12.266C4.20083 12.4844 3.99331 12.4844 3.7967 12.2988C3.6001 12.1131 3.58918 11.8182 3.78578 11.5997C3.98238 11.3922 4.17898 11.1847 4.39743 10.999C4.57219 10.8461 4.6268 10.6823 4.61588 10.4638C4.60496 9.98323 4.60496 9.51357 4.61588 9.03299C4.6268 8.63978 4.96539 8.39949 5.29306 8.5524C5.50058 8.63978 5.58797 8.80362 5.58797 9.02207C5.58797 9.03299 5.58797 9.04391 5.58797 9.06575C5.58797 9.37158 5.58797 9.67741 5.58797 9.98323Z" fill="black"/>
</svg>
