<svg width="78" height="82" viewBox="0 0 78 82" fill="none" xmlns="http://www.w3.org/2000/svg">
<g id="pop observado">
<g id="Group 3">
<rect id="Rectangle" y="4" width="78" height="78" rx="13" fill="#D5EDFF"/>
<g id="Group 2">
<path id="Mask" opacity="0.01" fill-rule="evenodd" clip-rule="evenodd" d="M0 13C0 5.8203 5.8203 0 13 0H65C72.1797 0 78 5.8203 78 13V69C78 76.1797 72.1797 82 65 82H13C5.8203 82 0 76.1797 0 69V13Z" fill="#D5EDFF"/>
<mask id="mask0_15_297" style="mask-type:luminance" maskUnits="userSpaceOnUse" x="0" y="0" width="78" height="82">
<path id="Mask_2" fill-rule="evenodd" clip-rule="evenodd" d="M0 13C0 5.8203 5.8203 0 13 0H65C72.1797 0 78 5.8203 78 13V69C78 76.1797 72.1797 82 65 82H13C5.8203 82 0 76.1797 0 69V13Z" fill="white"/>
</mask>
<g mask="url(#mask0_15_297)">
<g id="Group 2_2">
<g id="Group">
<path id="Path" d="M52.6439 29.5362C48.086 26.8047 42.051 21.0835 38.716 20.6388C34.9444 20.1356 23.899 11.9068 24.3349 16.8292C25.7614 32.9765 19.8619 30.7801 19.8619 30.7801C19.8619 30.7801 25.0463 34.741 30.3668 34.9315C35.6864 35.1228 41.7704 35.746 47.174 35.0437C52.5775 34.3417 56.8721 30.439 56.8721 30.439C56.8721 30.439 55.325 31.1427 52.6439 29.5362Z" fill="#601402"/>
<g id="Group_2">
<g id="Group_3">
<path id="Path_2" d="M33.8935 34.8858L24.177 38.497L30.0867 74.818L47.0171 74.8284L52.5569 38.5059L43.3852 35.2331L33.8935 34.8858Z" fill="#0A75C4"/>
<g id="Group_4">
<path id="Path_3" d="M25.3732 64.7364L24.5919 64.7706C24.9889 64.9954 25.3732 64.7364 25.3732 64.7364Z" fill="white"/>
<path id="Path_4" d="M21.4803 38.496C18.3127 39.7128 16.284 50.7396 16.0126 61.191L16.9665 65.1041L24.5918 64.7706C24.0543 64.4661 23.4939 63.2735 23.8344 59.3458C24.4272 52.5189 24.2541 49.7916 24.2541 49.7916L31.1663 35.0272C31.1663 35.0272 23.6805 37.6507 21.4803 38.496Z" fill="white"/>
</g>
<g id="Group_5">
<path id="Path_5" d="M55.2536 38.496C53.0876 37.57 45.5678 35.0272 45.5678 35.0272L52.4809 49.7916C52.4809 49.7916 52.6429 52.5189 53.2345 59.3458C53.5686 63.1944 53.4633 64.417 53.3075 64.7513L59.7671 65.1041L60.7215 61.191C60.4502 50.7394 58.0993 39.7127 55.2536 38.496Z" fill="#F0F1F1"/>
<path id="Path_6" d="M53.3077 64.7511L53.0367 64.7363C53.0365 64.7364 53.1871 65.01 53.3077 64.7511Z" fill="#F0F1F1"/>
</g>
<path id="Path_7" d="M24.1039 81.3316L24.3102 85.0443H53.1836L53.3145 81.3669L24.1039 81.3316Z" fill="#343444"/>
<g id="Group_6">
<path id="Path_8" d="M37.7 42.2297L39.5094 42.3311L44.3979 33.6857L32.8536 34.3083L37.7 42.2297Z" fill="#F7A96D"/>
<path id="Path_9" d="M31.1942 35.3346L36.1801 43.5009L38.7427 42.2005L31.8184 31.4936L31.1942 35.3346Z" fill="#035693"/>
<path id="Path_10" d="M38.4945 42.1985L41.0541 43.5022L45.7321 35.6482L45.4203 31.4979L38.4945 42.1985Z" fill="#035693"/>
</g>
<path id="Path_11" d="M31.8165 35.0272L24.7773 37.7445L22.6085 46.571C22.6085 46.571 28.363 59.0473 25.7646 64.9974C23.111 71.0752 22.3843 78.9059 22.303 85.0444H38.9888L39.454 62.9431L31.8165 35.0272Z" fill="white"/>
<path id="Path_12" d="M29.7286 35.0265L27.894 42.4938L30.8593 45.3703L30.5883 47.6313L39.454 62.9429L31.4233 33.4321L29.7286 35.0265Z" fill="#F0F1F1"/>
<path id="Path_13" d="M25.8163 74.4535L32.1249 74.4553V73.6337L25.8163 73.6299V74.4535Z" fill="#D0D2D3"/>
<path id="Path_14" d="M55.5488 46.3632L52.5975 37.5351L45.5591 34.8149L37.9037 62.7256L37.9155 85.0445H54.8456C54.6393 78.9984 53.771 71.2168 51.1014 64.9028C47.4841 56.3451 55.5488 46.3632 55.5488 46.3632Z" fill="#F0F1F1"/>
<path id="Path_15" d="M39.5128 65.9242C39.1677 65.9231 38.8888 66.1988 38.8888 66.5394C38.8876 66.8802 39.1686 67.1561 39.5114 67.1561C39.855 67.1561 40.1361 66.8813 40.1349 66.54C40.1361 66.2003 39.8561 65.9231 39.5128 65.9242Z" fill="#D0D2D3"/>
<path id="Path_16" d="M39.5098 72.3986C39.1666 72.3955 38.8864 72.6736 38.8858 73.0141C38.8858 73.354 39.1656 73.6299 39.5098 73.6299C39.8536 73.6299 40.1314 73.354 40.1328 73.0136C40.1348 72.6724 39.855 72.3963 39.5098 72.3986Z" fill="#D0D2D3"/>
<path id="Path_17" d="M39.551 79.2755C39.2057 79.2751 38.9269 79.5512 38.9269 79.8908C38.9269 80.2329 39.2071 80.5085 39.551 80.5085C39.893 80.5085 40.1742 80.2328 40.1742 79.8931C40.1742 79.5518 39.8952 79.2751 39.551 79.2755Z" fill="#D0D2D3"/>
<path id="Path_18" d="M44.8383 74.4588L51.1457 74.4621L51.1466 73.6388L44.8383 73.6377V74.4588Z" fill="#D0D2D3"/>
<path id="Path_19" d="M47.4447 35.0318L45.7512 33.4366L37.7 62.9429L47.5096 47.6363L46.3059 45.3752L49.2748 42.5004L47.4447 35.0318Z" fill="white"/>
<path id="Path_20" d="M31.7402 61.9782L31.178 64.0844L52.2658 68.1499L51.6454 65.7184L31.7402 61.9782Z" fill="#D0D2D3"/>
<path id="Path_21" d="M26.9333 55.1696C26.6264 55.8449 27.7461 56.5478 27.7461 56.5478C27.7461 56.5478 25.059 55.827 24.0931 56.1142C23.1267 56.4011 22.5872 57.5858 22.4547 58.4194C22.3232 59.2534 23.1704 60.7958 24.6447 61.3161C26.1209 61.8375 30.6212 62.4823 31.0501 61.966C31.4762 61.4512 32.1995 57.3587 32.1995 57.3587L28.6029 54.9572C28.6031 54.9572 27.2404 54.4918 26.9333 55.1696Z" fill="#FFBA7F"/>
<path id="Path_22" d="M54.817 59.8917L31.9893 56.178L30.7477 63.2001C30.7477 63.2001 51.5372 67.2107 56.3641 67.998C61.1913 68.7851 60.7218 60.152 60.7218 60.152L54.817 59.8917Z" fill="#F0F1F1"/>
<path id="Path_23" d="M25.0776 66.2238L24.5426 68.2316L46.1127 64.1316L45.7764 61.9782L25.0776 66.2238Z" fill="#D0D2D3"/>
<path id="Path_24" d="M47.4373 56.7432C44.8105 56.5693 43.28 57.4295 43.28 57.4295C43.28 57.4295 44.0034 61.5228 44.4294 62.0374C44.8574 62.5525 46.8315 60.4548 48.3076 59.9328C49.7833 59.4142 51.2147 59.622 52.1235 59.5137C52.9708 59.4132 49.8436 56.9023 47.4373 56.7432Z" fill="#FFBA7F"/>
<path id="Path_25" d="M22.2551 59.9091L16.0126 60.1173C16.0126 60.1173 15.5415 68.7849 20.3696 67.998C25.1972 67.2107 45.9865 63.2001 45.9865 63.2001L44.7437 55.5149L22.2551 59.9091Z" fill="white"/>
</g>
<g id="Group_7">
<g id="Group_8">
<path id="Path_26" d="M25.7039 58.0969C24.9139 58.105 23.9486 57.9405 23.6579 57.5829C23.4608 57.3953 23.3106 56.7024 23.3294 55.7851C23.3367 53.9494 23.8047 51.2263 24.0825 49.07L23.4428 48.9889C23.1672 51.129 22.6933 53.8553 22.6816 55.7802C22.688 56.7511 22.7578 57.5208 23.1777 58.0102C23.7896 58.6463 24.8523 58.7158 25.6996 58.7345C26.39 58.7369 26.9405 58.6668 26.9492 58.6644L26.8648 58.0326C26.8644 58.0322 26.3466 58.1005 25.7039 58.0969Z" fill="#BBBDBF"/>
<path id="Path_27" d="M26.4865 57.7376C26.0412 57.7703 25.6984 58.0315 25.7187 58.3247C25.741 58.6176 26.1161 58.8309 26.5618 58.7995C27.0071 58.7676 27.351 58.5055 27.3285 58.2125C27.3085 57.9195 26.9312 57.7069 26.4865 57.7376Z" fill="#57585A"/>
</g>
<g id="Group_9">
<path id="Path_28" d="M32.7985 49.1183C33.052 51.2779 33.4875 54.006 33.4759 55.8411C33.4815 56.7584 33.3242 57.4502 33.126 57.6362C32.8312 57.99 31.8641 58.1444 31.0733 58.1259C30.4325 58.1231 29.915 58.0473 29.9141 58.0495L29.824 58.6805C29.8316 58.6817 30.3805 58.7596 31.0699 58.7639C31.9182 58.755 32.982 58.6984 33.6023 58.0671C34.0255 57.5824 34.104 56.8143 34.1206 55.8449C34.1317 53.9179 33.6903 51.189 33.4387 49.0436L32.7985 49.1183Z" fill="#BBBDBF"/>
<path id="Path_29" d="M30.298 57.7591C29.853 57.7233 29.4728 57.9319 29.4488 58.2251C29.4253 58.5173 29.7655 58.7838 30.2098 58.8205C30.6542 58.8557 31.0328 58.6464 31.0575 58.3554C31.0806 58.0621 30.7414 57.7959 30.298 57.7591Z" fill="#57585A"/>
</g>
<path id="Path_30" d="M28.4813 42.843C25.5651 42.8531 23.3681 45.8198 23.3425 49.348L24.1855 49.3514C24.1928 47.7488 24.7016 46.3052 25.4929 45.2858C26.2894 44.2627 27.3403 43.669 28.4758 43.675C29.612 43.6822 30.6573 44.2874 31.4414 45.3187C32.2208 46.3489 32.7128 47.7963 32.7032 49.3995L33.5451 49.4046C33.5608 45.8764 31.3968 42.8856 28.4813 42.843Z" fill="#57585A"/>
</g>
<path id="Path_31" d="M29.3469 33.7162C28.5674 34.7168 27.894 36.0001 27.6347 37.3572C27.5332 37.8951 27.4918 38.8352 27.4918 39.3722V40.1524C27.5218 41.0187 27.7845 43.2343 27.7903 43.2555H28.5759C28.5759 43.2555 28.2991 41.1527 28.3001 40.1524V39.3722C28.2991 38.8745 28.3372 37.9808 28.4284 37.5027C28.653 36.3069 29.2707 35.117 29.9841 34.2028C30.6882 33.2869 31.5241 32.657 32.0022 32.5512L31.8084 31.7776C30.9945 31.9909 30.1344 32.7186 29.3469 33.7162Z" fill="#57585A"/>
<path id="Path_32" d="M47.8859 33.7162C47.0966 32.7172 46.2378 31.9909 45.4253 31.7776L45.2295 32.5512C45.7079 32.6568 46.5432 33.2874 47.2463 34.2028C47.9609 35.117 48.5783 36.3069 48.804 37.5027C48.8932 37.9725 48.9326 38.5816 48.9312 39.2465C48.9326 41.9225 48.3123 45.4649 48.3129 45.4712L49.1096 45.6088V45.6065C49.1108 45.597 49.7375 42.0304 49.7392 39.2467C49.7386 38.5506 49.7004 37.9034 49.5976 37.3575C49.3373 35.9995 48.6663 34.7168 47.8859 33.7162Z" fill="#57585A"/>
<g id="Group_10">
<path id="Path_33" d="M47.8592 45.248C46.255 45.248 44.9545 46.5343 44.9545 48.1203C44.9545 49.7065 46.2551 50.9909 47.8592 50.9909C49.4637 50.9909 50.7648 49.7065 50.7648 48.1203C50.765 46.5343 49.4637 45.248 47.8592 45.248Z" fill="#929597"/>
<ellipse id="Oval" cx="47.8592" cy="48.1203" rx="1.39885" ry="1.38283" fill="#D0D2D3"/>
</g>
</g>
<path id="Path_34" d="M38.6256 43.5258C38.3646 43.5258 38.1537 43.7342 38.1537 43.9907C38.1537 44.2473 38.3646 44.4563 38.6256 44.4563C38.8858 44.4563 39.0965 44.2473 39.0965 43.9907C39.0965 43.7343 38.8858 43.5258 38.6256 43.5258Z" fill="#035693"/>
<path id="Path_35" d="M38.6256 47.8331C38.3646 47.8331 38.1537 48.0411 38.1537 48.2976C38.1537 48.554 38.3646 48.7633 38.6256 48.7633C38.8858 48.7633 39.0965 48.554 39.0965 48.2976C39.0965 48.0412 38.8858 47.8331 38.6256 47.8331Z" fill="#035693"/>
<path id="Path_36" d="M38.6256 52.1397C38.3646 52.1397 38.1537 52.348 38.1537 52.6053C38.1537 52.8615 38.3646 53.0704 38.6256 53.0704C38.8858 53.0704 39.0965 52.8615 39.0965 52.6053C39.0965 52.3481 38.8858 52.1397 38.6256 52.1397Z" fill="#035693"/>
<g id="Group_11">
<g id="Group_12">
<path id="Path_37" d="M25.4412 17.7801C24.1493 18.1797 24.4485 20.2391 24.4474 21.0047C24.4474 21.772 25.5269 24.4854 26.2513 24.7838C28.0829 25.5393 28.0847 22.6995 28.0847 22.6995V19.3942C28.0847 19.3942 26.7315 17.3827 25.4412 17.7801Z" fill="#FFBA7F"/>
<path id="Path_38" d="M51.7259 17.8141C50.4356 17.4158 49.08 19.4238 49.08 19.4238V22.73C49.08 22.73 49.0774 25.6589 50.9126 24.8168C51.6241 24.4888 52.7172 21.8044 52.7172 21.0377C52.7172 20.2714 53.0166 18.2124 51.7259 17.8141Z" fill="#FFBA7F"/>
<path id="Path_39" d="M41.8475 4.58373L35.4327 4.58189C30.7785 4.58035 27.0044 8.64006 27.0011 15.0936L26.9988 23.982C27.8941 30.2566 33.3257 34.9605 35.4233 35.6712C37.6321 36.4177 39.7947 36.3131 41.8381 35.6724C44.0418 34.9818 49.7363 30.4888 49.7393 24.0361L50.2741 15.1009C50.2741 8.64803 46.5032 4.58526 41.8475 4.58373Z" fill="#FFBA7F"/>
<g id="Group_13">
<path id="Path_40" d="M33.4465 19.1667C32.6831 19.1667 32.0648 19.8241 32.0648 20.6361C32.0648 21.4459 32.6831 22.1026 33.4451 22.1026C34.208 22.1026 34.8262 21.4459 34.8262 20.6365C34.8285 19.8263 34.21 19.1689 33.4465 19.1667Z" fill="#221F1F"/>
<path id="Path_41" d="M43.9674 19.1709C43.205 19.1704 42.585 19.8278 42.585 20.6393C42.585 21.4495 43.2039 22.1058 43.9667 22.1058C44.7288 22.1069 45.3471 21.4495 45.3471 20.6393C45.3471 19.8298 44.7288 19.1709 43.9674 19.1709Z" fill="#221F1F"/>
<path id="Path_42" d="M46.2402 17.7145C43.9183 17.9488 42.9941 17.2468 42.5332 17.1043C42.1295 16.9785 40.8727 16.3395 41.1175 16.0064C41.579 15.3811 43.0974 16.3089 43.7364 16.5839C45.0002 17.1275 45.8207 17.5148 48.4091 16.6211C48.8059 16.4843 47.1852 17.6192 46.2402 17.7145Z" fill="#601402"/>
<path id="Path_43" d="M35.494 17.1043C35.0341 17.2468 34.1092 17.9488 31.7876 17.7144C30.843 17.6191 29.2215 16.4844 29.6182 16.6211C32.2058 17.5147 33.0277 17.1274 34.2913 16.5838C34.9292 16.3091 36.4489 15.3811 36.9103 16.0064C37.1554 16.3392 35.8972 16.9786 35.494 17.1043Z" fill="#601402"/>
</g>
<path id="Path_44" d="M40.4781 25.4235C39.2769 26.4882 37.5729 26.1654 37.0733 25.422C37.0733 25.422 37.574 27.3349 38.7756 27.2741C39.9769 27.2136 41.6803 24.3594 40.4781 25.4235Z" fill="#F69D5E"/>
</g>
<g id="Group_14">
<g id="Group_15">
<path id="Path_45" d="M28.3498 19.2409L28.7576 19.1769L28.7857 19.3343L28.8115 19.4663L28.8408 19.6072L28.8737 19.7564C28.9726 20.193 29.0944 20.6294 29.2398 21.0353C29.4746 21.6905 29.7476 22.1991 30.051 22.4997C30.5659 23.0105 32.0472 23.2622 33.3928 23.2207L33.5417 23.2148C34.3076 23.1785 35.0152 23.0451 35.4562 22.8081C35.9694 22.5324 36.3401 22.0149 36.5849 21.3193C36.7221 20.9297 36.8108 20.5098 36.8601 20.0895C36.8745 19.9667 36.8846 19.8514 36.8911 19.7455L36.8959 19.657L36.8992 19.5581L36.8995 19.5342H37.3123L37.3121 19.563L37.3084 19.6747L37.307 19.7035C37.3004 19.8344 37.2886 19.9799 37.2702 20.1365C37.2177 20.5844 37.123 21.0327 36.9749 21.4535C36.6993 22.2364 36.2704 22.8352 35.6533 23.1667C34.2672 23.9116 30.7306 23.7521 29.7586 22.7879C29.4027 22.4353 29.1041 21.879 28.8507 21.1716C28.6991 20.7486 28.573 20.297 28.4708 19.8456L28.4368 19.6916L28.4065 19.5458C28.4018 19.5223 28.3972 19.4991 28.3927 19.4763L28.3677 19.3436L28.3498 19.2409Z" fill="#221F1F"/>
<path id="Path_46" d="M29.5376 18.5114C31.7664 17.628 34.5005 17.6578 37.5907 19.1946C37.8109 19.304 37.8996 19.5692 37.7888 19.7868C37.6781 20.0044 37.4098 20.0921 37.1897 19.9826C34.3377 18.5644 31.8698 18.5374 29.8697 19.3302C29.5918 19.4403 29.3502 19.5577 29.1467 19.6741L29.1062 19.6976L29.0325 19.7419L28.9687 19.7825L28.9203 19.8152C28.7225 19.9605 28.443 19.9198 28.296 19.7242C28.149 19.5287 28.1903 19.2524 28.3881 19.1071L28.4249 19.0809L28.4706 19.0502L28.5251 19.0151L28.5885 18.976L28.6606 18.9332C28.6733 18.9258 28.6864 18.9182 28.6999 18.9105C28.9393 18.7736 29.219 18.6377 29.5376 18.5114Z" fill="#221F1F"/>
</g>
<path id="Path_47" d="M26.0003 17.3531L29.0504 19.569L28.5725 20.2118L25.5225 17.9958L26.0003 17.3531Z" fill="#221F1F"/>
<g id="Group_16">
<path id="Path_48" d="M48.7074 19.1753L49.1151 19.2395L49.0971 19.3426L49.0849 19.4085L49.058 19.5457L49.0275 19.692C49.0168 19.7422 49.0054 19.7938 48.9934 19.8467C48.8906 20.3 48.7639 20.7535 48.6119 21.1782C48.3574 21.8895 48.0578 22.4486 47.701 22.8026C46.7242 23.7712 43.1753 23.931 41.7838 23.1832C41.1646 22.8503 40.7343 22.2488 40.4577 21.4623C40.3091 21.0396 40.2141 20.5892 40.1614 20.1392C40.146 20.0082 40.1352 19.8848 40.1282 19.7712L40.1231 19.6753L40.1203 19.6014L40.1191 19.5342H40.532L40.5337 19.6114L40.5368 19.684C40.543 19.8069 40.5541 19.9442 40.5715 20.0923C40.621 20.5147 40.71 20.9367 40.8477 21.3283C41.0935 22.0274 41.4657 22.5475 41.981 22.8247C43.2239 23.4926 46.5744 23.3417 47.4085 22.5144C47.7127 22.2127 47.9868 21.7012 48.2227 21.0421C48.3686 20.6343 48.4911 20.1959 48.5905 19.7574L48.6236 19.6075C48.6288 19.5832 48.6339 19.5593 48.6388 19.5357L48.6665 19.3985L48.7031 19.2011L48.7074 19.1753Z" fill="#221F1F"/>
<path id="Path_49" d="M39.8538 19.1879C43.3497 17.6013 46.1099 17.5899 48.1362 18.5486C48.436 18.6904 48.6929 18.8435 48.9076 18.9983L48.9768 19.0493C48.9877 19.0575 48.9982 19.0655 49.0084 19.0733L49.0655 19.1185L49.1146 19.1593L49.1557 19.1954C49.1681 19.2066 49.1791 19.217 49.1889 19.2264C49.3649 19.3982 49.3667 19.6786 49.1929 19.8526C49.0261 20.0197 48.7581 20.028 48.5811 19.8764L48.5435 19.8418L48.5201 19.8217L48.4711 19.7822L48.4292 19.7501L48.3799 19.7138C48.2085 19.5903 47.9985 19.4652 47.7495 19.3474C47.0167 19.0007 46.1164 18.7928 45.0394 18.7972C43.6304 18.8031 42.0291 19.1751 40.2276 19.9927C40.0028 20.0947 39.7369 19.9973 39.6337 19.775C39.5305 19.5528 39.629 19.2899 39.8538 19.1879Z" fill="#221F1F"/>
</g>
<path id="Path_50" d="M51.4649 17.3529L51.9424 17.996L48.889 20.2119L48.4114 19.5689L51.4649 17.3529Z" fill="#221F1F"/>
<path id="Path_51" d="M38.7807 19.4803C39.1421 19.4803 39.5032 19.552 39.8497 19.6711C39.8816 19.682 39.9124 19.693 39.9419 19.7039L40.0268 19.7364L40.1042 19.7681C40.1164 19.7732 40.1283 19.7784 40.1399 19.7834L40.2052 19.8129L40.262 19.8404L40.31 19.8653L40.572 20.0071L40.2851 20.5253L40.0066 20.3749L39.9489 20.3471L39.9295 20.3383C39.8479 20.3012 39.7552 20.2639 39.6536 20.229C39.3656 20.1301 39.0681 20.071 38.7807 20.071C38.6687 20.071 38.533 20.0891 38.3797 20.1236C38.2287 20.1576 38.066 20.2063 37.8978 20.2657C37.7731 20.3099 37.6529 20.3572 37.542 20.4046L37.448 20.4457L37.4044 20.4658L37.1352 20.5939L36.876 20.0617L37.1731 19.9206L37.2784 19.8738L37.3052 19.8623C37.4272 19.8102 37.559 19.7582 37.6965 19.7096C37.8856 19.6427 38.0706 19.5874 38.247 19.5477C38.4406 19.5041 38.6189 19.4803 38.7807 19.4803Z" fill="#221F1F"/>
</g>
<path id="Path_52" d="M53.1925 10.3559C51.3974 3.51463 43.8761 0.857836 42.6546 0.556521C37.3255 -0.751939 34.3702 0.657266 34.3702 0.657266C34.3702 0.657266 30.5958 1.75902 29.6362 4.15498C26.9775 4.19684 25.6668 6.1754 24.6796 7.58568C20.6838 13.2914 22.6783 18.2039 23.5609 25.6592C24.1204 30.3828 20.5693 30.416 19.8618 30.7801C19.8618 30.7801 26.9085 33.5678 27.5361 32.8626C28.2802 32.0269 24.7091 27.9112 24.8054 23.8682C24.8215 23.2177 29.0854 18.4964 31.1852 9.97182C31.1852 9.97182 35.5769 15.3184 45.5677 14.9281C44.3131 13.5953 43.8412 10.9023 43.8412 10.9023C43.8412 10.9023 46.7934 15.1232 49.8103 17.3669C51.3973 24.9117 46.806 33.0284 48.7704 32.6728C50.9155 32.2846 52.7608 31.8021 56.872 30.4389C47.5494 28.4867 56.548 23.1474 53.1925 10.3559Z" fill="#601402"/>
</g>
</g>
<path id="Path 4" d="M36.301 29.1479C37.4064 28.95 38.3983 28.95 39.2748 29.152C40.1501 29.3537 41.0139 29.7749 41.8662 30.4115C42.0248 30.5299 42.0453 30.7401 41.9121 30.8811C41.7789 31.022 41.5423 31.0403 41.3838 30.9219C40.6126 30.3459 39.8468 29.9725 39.0866 29.7973C38.3276 29.6224 37.4491 29.6224 36.4491 29.8014C36.2461 29.8378 36.0483 29.7209 36.0075 29.5404C35.9666 29.36 36.098 29.1842 36.301 29.1479Z" fill="#D97E3D"/>
</g>
</g>
</g>
</g>
</g>
</svg>
