<svg width="132" height="70" viewBox="0 0 132 70" fill="none" xmlns="http://www.w3.org/2000/svg">
<g id="LOGO SUMA SALUD ">
<g id="Group">
<path id="Path" d="M0 64.8918L5.43037 59.8731C7.92789 62.2032 11.1586 63.2114 13.8853 63.2114C17.2535 63.2114 18.8345 61.6431 18.8345 60.3884C18.8345 59.4698 18.0096 59.3802 14.6185 58.5288C8.95897 57.1397 4.53677 55.9971 4.53677 50.5975C4.53677 44.6603 9.96714 40.0225 18.17 40.0225C22.6609 40.0225 26.7853 41.4116 29.7639 44.1449L24.746 49.5445C22.2943 47.4833 19.2698 46.8111 17.368 46.8111C14.481 46.8111 13.0604 48.4243 13.0604 49.6341C13.0604 50.6871 14.0915 50.8888 17.3222 51.6057C24.219 53.1741 27.3352 54.7648 27.3352 59.3578C27.3352 65.8104 21.1258 69.9777 13.2895 69.9777C7.92789 70.0001 3.07034 68.0508 0 64.8918Z" fill="#00AF51"/>
<path id="Shape" fill-rule="evenodd" clip-rule="evenodd" d="M53.5018 69.4847L58.1531 47.6849H49.8357L49.1941 50.7095C47.7735 48.469 45.3447 47.1696 42.2515 47.1696C35.1026 47.1696 29.9243 53.9134 29.9243 61.0381C29.9243 66.348 33.2009 69.9776 38.4709 69.9776C41.2204 69.9776 43.6721 68.9694 45.6655 67.289L45.1844 69.4847H53.5018ZM47.7277 56.938C47.7277 59.9627 44.9323 63.2562 41.4725 63.2562C39.2041 63.2562 37.8522 62.0687 37.8522 60.1643C37.8522 56.938 40.9225 53.9358 44.5428 53.9358C46.5133 53.9358 47.7277 55.0784 47.7277 56.938Z" fill="#00AF51"/>
<path id="Path_2" d="M64.3627 40.0225H72.6801L66.4478 69.4847H58.1304L64.3627 40.0225Z" fill="#00AF51"/>
<path id="Path_3" d="M98.2506 47.6848L93.5993 69.4847H85.2819L85.6714 67.7595C84.0675 69.1934 81.9137 70 79.5078 70C75.1544 70 72.4277 67.177 72.4277 63.2561C72.4277 61.643 72.7714 60.5676 75.521 47.7072H83.4489C80.8139 59.8954 80.6993 60.4331 80.6993 61.0605C80.6993 62.4944 81.57 63.2561 82.9448 63.2561C85.0986 63.2561 87.0462 61.531 87.3899 59.5818L89.9332 47.6848H98.2506V47.6848Z" fill="#00AF51"/>
<path id="Shape_2" fill-rule="evenodd" clip-rule="evenodd" d="M122.745 69.4847L129 40.0224V40H120.683L118.437 50.6647C117.017 48.469 114.588 47.1695 111.495 47.1695C104.346 47.1695 99.1675 53.9134 99.1675 61.0381C99.1675 66.348 102.444 69.9776 107.714 69.9776C110.464 69.9776 112.915 68.9694 114.909 67.289L114.428 69.4847H122.745ZM116.971 56.938C116.971 59.9627 114.175 63.2562 110.716 63.2562C108.447 63.2562 107.095 62.0687 107.095 60.1643C107.095 56.938 110.166 53.9358 113.786 53.9358C115.756 53.9358 116.971 55.0784 116.971 56.938Z" fill="#00AF51"/>
</g>
<g id="Group_2">
<path id="Path_4" d="M58.0546 13.0909L54.2074 31.4545H45.4594L45.8717 29.6136C44.1999 31.1363 41.9328 31.9999 39.3909 31.9999C34.8108 31.9999 31.9482 28.9772 31.9482 24.7954C31.9482 23.0909 32.3146 21.909 35.223 8.18176H38.658C41.2 8.18176 43.0778 10.4999 42.574 12.9772C40.7878 21.3636 40.6962 21.8863 40.6962 22.4772C40.6962 23.9999 41.6122 24.8181 43.0549 24.8181C45.322 24.8181 47.3602 22.9772 47.7266 20.909L50.3372 8.18176H54.0471C56.6577 8.18176 58.6042 10.5454 58.0546 13.0909Z" fill="#00357E"/>
<path id="Path_5" d="M100.81 15.0227C100.81 16.3182 100.535 17.1818 97.5349 31.5H94.6724C91.8327 31.5 89.7259 28.9091 90.2984 26.1591C91.6266 19.8864 92.1533 17.3636 92.1304 16.9546C92.0846 15.6591 91.4892 14.8409 89.9091 14.8409C87.8252 14.8409 85.8786 16.2727 85.4206 17.9546C84.9626 20.0227 84.1611 23.8636 82.5581 31.5H80.1994C77.1078 31.5 74.8178 28.6818 75.4361 25.6818C76.6727 19.75 77.1994 17.3409 77.1765 16.9546C77.1307 15.9546 76.8101 14.8409 75.001 14.8409C72.7339 14.8409 70.7873 16.5 70.4209 18.1818L70.3751 18.3182L67.5813 31.4546H64.5584C61.6043 31.4546 59.3829 28.75 59.9784 25.8636L63.7111 8.1591H70.0316C71.2911 8.1591 72.2529 9.31819 71.9781 10.5455C73.3751 8.70456 75.6193 7.61365 78.1383 7.61365C81.2299 7.61365 83.726 9.09092 84.9397 11.4773C86.6573 9.00001 89.7488 7.61365 92.932 7.61365C97.6723 7.63637 100.81 10.75 100.81 15.0227Z" fill="#00357E"/>
<path id="Path_6" d="M31.2842 4.54545C30.8262 3.97727 30.2766 3.47727 29.6812 3.02273C27.6659 1.63636 25.2843 0.727273 22.7424 0.295455C22.6736 0.272727 22.582 0.272727 22.5133 0.25C22.4217 0.227273 22.3301 0.227273 22.2385 0.204545C21.208 0.0681818 20.1775 0 19.1699 0C18.8493 0 18.5287 0 18.2081 0.0227273C18.1852 0.0227273 18.1394 0.0227273 18.1165 0.0227273C17.8875 0.0227273 17.6814 0.0454545 17.4524 0.0681818C17.2692 0.0909091 17.1089 0.0909091 16.9257 0.113636C16.9028 0.113636 16.8799 0.113636 16.8341 0.113636C12.483 0.613636 9.07085 2.45455 7.03271 5.09091C8.13193 4.45455 12.4372 2.02273 16.0325 3.13636C19.1699 4.09091 19.7882 6.5 21.6431 7.75C22.1011 8.06818 22.6507 8.29545 23.3149 8.40909C23.3607 8.40909 23.4065 8.43182 23.4523 8.43182C25.0095 8.65909 27.1392 8.13636 28.6964 7.40909C28.9712 7.27273 29.2231 7.15909 29.4751 7.02273C29.7728 6.84091 30.3911 6.36364 30.643 6.13636L31.7193 5.06818C31.559 4.88636 31.4216 4.70455 31.2842 4.54545Z" fill="#0072C2"/>
<path id="Path_7" d="M18.3455 12.3637C16.9028 12.0455 15.8952 11.8182 15.1853 11.5682C14.2235 11.25 13.857 10.8864 13.857 10.2273C13.857 8.93185 15.3456 7.20458 18.3913 7.20458C18.4829 7.20458 18.5745 7.20458 18.6661 7.20458C18.6432 7.02276 18.231 6.09095 17.544 5.36367C16.7654 4.52276 15.4601 3.93185 13.6509 3.81822C10.9029 3.6364 6.32283 6.09095 6.32283 6.09095H6.27703C5.36102 7.6364 4.85721 9.36367 4.85721 11.25C4.85721 17.0228 9.52888 18.2273 15.483 19.7273C19.0783 20.6364 19.9256 20.7273 19.9256 21.7046C19.9256 23.0455 18.2539 24.7273 14.7044 24.7273C11.8418 24.7273 8.45257 23.6364 5.81903 21.1591L1.60536 25.0909C0.75805 25.8864 0.80385 27.25 1.71986 27.9773C4.90301 30.4773 9.32278 31.9546 14.0631 31.9546C22.3302 31.9546 28.8568 27.5 28.8568 20.6137C28.8797 15.75 25.6049 14.0228 18.3455 12.3637Z" fill="#00357E"/>
<path id="Path_8" d="M31.2843 4.54545C30.8263 3.97727 30.2767 3.47727 29.6813 3.02273C27.6661 1.63636 25.2845 0.727273 22.7425 0.295455C22.6738 0.272727 22.5822 0.272727 22.5135 0.25C22.4219 0.227273 22.3303 0.227273 22.2387 0.204545C21.2082 0.0681818 20.1777 0 19.1701 0C18.8495 0 18.5289 0 18.2083 0.0227273C18.1854 0.0227273 18.1396 0.0227273 18.1167 0.0227273C18.1167 0.0227273 18.1167 0.0227273 18.0938 0.0227273C18.7808 0.113636 20.9105 0.772727 22.1471 1.36364C25.8112 3.13636 26.2692 5.22727 28.1012 5.68182C29.6355 6.06818 30.9866 5.43182 31.5821 5.18182L31.6966 5.06818C31.5592 4.88636 31.4217 4.70455 31.2843 4.54545Z" fill="#0094E2"/>
<g id="Group_3">
<path id="Shape_3" fill-rule="evenodd" clip-rule="evenodd" d="M128.061 31.4545L131.908 13.1818C132.458 10.6136 130.465 8.18181 127.832 8.15908H124.236L123.549 11.4091C122.061 9.02272 119.519 7.63635 116.244 7.63635C108.71 7.63635 103.26 14.8409 103.26 22.4545C103.26 28.1364 106.695 32 112.237 32C115.145 32 117.733 30.9091 119.817 29.1136L119.313 31.4545H128.061ZM121.969 18.0454C121.969 21.2727 119.038 24.7954 115.397 24.7954C112.992 24.7954 111.595 23.5454 111.573 21.5C111.573 18.0454 114.802 14.8409 118.603 14.8409C120.71 14.8409 121.969 16.0682 121.969 18.0454Z" fill="#00357E"/>
<path id="Path_9" d="M122.175 15.4318C120.824 13.6136 117.71 13.6363 115.237 15.4545C114.939 15.6591 114.664 16 114.412 16.2727C115.603 15.3863 117.069 14.8409 118.649 14.8409C120.733 14.8409 122.015 16.0682 122.015 18.0454C122.015 19.0682 121.717 20.1363 121.191 21.0909C122.839 19.2954 123.32 16.9545 122.175 15.4318Z" fill="#0072C2"/>
</g>
</g>
</g>
</svg>
