<svg width="22" height="22" viewBox="0 0 22 22" fill="none" xmlns="http://www.w3.org/2000/svg">
<path fill-rule="evenodd" clip-rule="evenodd" d="M15.8924 3.40992C15.7903 4.05335 16.0973 4.9789 15.0889 5.02083C13.9298 5.06897 14.3406 4.0034 14.1976 3.39464C11.937 3.39464 9.74674 3.39464 7.53241 3.39464C7.40476 4.02592 7.76827 4.9657 6.75448 5.02135C5.59411 5.08528 5.97783 4.02436 5.80925 3.4081C2.84488 3.0825 1.28748 4.35773 1.73106 6.71872C7.83095 6.71872 13.9319 6.71872 20.0279 6.71872C20.2446 4.15119 18.9082 3.08224 15.8924 3.40992ZM1.6602 8.45309C1.6602 11.509 1.65764 14.4927 1.66122 17.4765C1.66353 19.261 2.69676 20.294 4.47927 20.295C8.73602 20.2974 12.9928 20.2974 17.2492 20.295C19.0302 20.294 20.0629 19.26 20.0655 17.4746C20.0691 14.6504 20.067 11.8258 20.065 9.00128C20.065 8.82735 20.045 8.65342 20.0328 8.45309C13.9065 8.45309 7.81867 8.45309 1.6602 8.45309ZM5.81922 1.68848C5.94662 0.325515 6.14334 -0.0627203 6.71227 0.00793853C7.70381 0.13088 7.45004 0.964033 7.52115 1.64189C9.74085 1.64189 11.9449 1.64189 14.1956 1.64189C14.3074 1.00752 13.9902 0.00198559 15.0705 0.0283856C16.0589 0.052715 15.8141 0.968691 15.896 1.68848C16.4051 1.68848 16.9126 1.68667 17.4199 1.689C19.9107 1.70039 21.7188 3.52872 21.7229 6.0582C21.7293 9.90328 21.7293 13.7486 21.7229 17.5937C21.7191 20.1467 19.9041 21.9694 17.3659 21.9722C13.0311 21.9771 8.69636 21.9771 4.36134 21.9722C1.79962 21.9694 0.00559676 20.141 0.0027828 17.5344C-0.00105441 13.7292 -0.000798592 9.92399 0.0027828 6.11902C0.00559676 3.50646 1.79348 1.69495 4.36518 1.68874C4.83715 1.6877 5.30913 1.68848 5.81922 1.68848Z" fill="#333333"/>
<path fill-rule="evenodd" clip-rule="evenodd" d="M14.8177 16.6652C15.4323 16.6652 15.9847 16.6652 16.5501 16.6652C16.5501 16.0686 16.5501 15.5149 16.5501 14.9492C15.955 14.9492 15.402 14.9492 14.8177 14.9492C14.8177 15.5331 14.8177 16.0702 14.8177 16.6652ZM15.7014 13.179C16.267 13.1793 16.8324 13.1812 17.3978 13.1787C17.9908 13.176 18.3077 13.4994 18.3207 14.06C18.3472 15.2108 18.3402 16.363 18.3256 17.5143C18.318 18.0831 17.9995 18.428 17.4287 18.4386C16.2565 18.4602 15.0826 18.4646 13.9107 18.4332C13.3835 18.4191 13.0638 18.1063 13.063 17.544C13.0609 16.3924 13.0528 15.2406 13.066 14.0892C13.0728 13.462 13.3599 13.1939 14.0052 13.1814C14.5703 13.1703 15.136 13.179 15.7014 13.179Z" fill="#333333"/>
</svg>
