<svg width="268" height="270" viewBox="0 0 268 270" fill="none" xmlns="http://www.w3.org/2000/svg">
<g id="cruces 2">
<path id="Mask" opacity="0.01" d="M268 270L0 270L0 0L239 0C255.016 0 268 12.9837 268 29L268 270Z" fill="#D8D8D8"/>
<mask id="mask0_3021_1859" style="mask-type:luminance" maskUnits="userSpaceOnUse" x="0" y="0" width="268" height="270">
<path id="Mask_2" d="M268 270L0 270L0 0L239 0C255.016 0 268 12.9837 268 29L268 270Z" fill="white"/>
</mask>
<g mask="url(#mask0_3021_1859)">
<g id="Group 2">
<path id="Combined Shape Copy 3" fill-rule="evenodd" clip-rule="evenodd" d="M205.91 148.604C228.759 148.604 247.282 130.081 247.282 107.231V77.7523L276.55 77.7523C299.442 77.7523 318 59.1943 318 36.3018C318 13.4094 299.442 -5.14862 276.55 -5.14862H247.282L247.282 -34.6277C247.282 -57.477 228.759 -76 205.91 -76C183.061 -76 164.538 -57.477 164.538 -34.6277V-5.14862H135.271C112.378 -5.14862 93.8202 13.4094 93.8202 36.3018C93.8202 59.1943 112.378 77.7523 135.271 77.7523L164.538 77.7523V107.231C164.538 130.081 183.061 148.604 205.91 148.604Z" fill="#F3F9FF"/>
<path id="Combined Shape Copy 4" fill-rule="evenodd" clip-rule="evenodd" d="M71.691 189.09C83.647 189.09 93.3392 179.398 93.3392 167.442V150.05H108.693C120.671 150.05 130.382 140.339 130.382 128.36C130.382 116.382 120.671 106.671 108.693 106.671H93.3392L93.3392 91.2068C93.3392 79.2508 83.647 69.5586 71.691 69.5586C59.735 69.5586 50.0427 79.2508 50.0427 91.2068V106.671H34.6893C22.7107 106.671 13.0001 116.382 13.0001 128.36C13.0001 140.339 22.7107 150.05 34.6893 150.05H50.0427V167.442C50.0427 179.398 59.735 189.09 71.691 189.09Z" fill="#F3F9FF"/>
<path id="Combined Shape Copy 6" fill-rule="evenodd" clip-rule="evenodd" d="M165.019 245C172.458 245 178.489 238.969 178.489 231.53V220.901H188.085C195.538 220.901 201.581 214.859 201.581 207.405C201.581 199.952 195.538 193.91 188.085 193.91H178.489V184.245C178.489 176.806 172.458 170.775 165.019 170.775C157.58 170.775 151.549 176.805 151.549 184.245V193.91H141.953C134.5 193.91 128.458 199.952 128.458 207.405C128.458 214.859 134.5 220.901 141.953 220.901H151.549V231.53C151.549 238.969 157.58 245 165.019 245Z" fill="#F3F9FF"/>
</g>
</g>
</g>
</svg>
